<svg xmlns="http://www.w3.org/2000/svg" width="22.685" height="18.424" viewBox="0 0 22.685 18.424">
  <path fill="currentColor" id="Icon_awesome-twitter" data-name="Icon awesome-twitter" d="M20.353,7.972c.014.2.014.4.014.6A13.138,13.138,0,0,1,7.139,21.805,13.139,13.139,0,0,1,0,19.718a9.618,9.618,0,0,0,1.123.058,9.311,9.311,0,0,0,5.772-1.986,4.658,4.658,0,0,1-4.347-3.224,5.863,5.863,0,0,0,.878.072,4.917,4.917,0,0,0,1.223-.158A4.65,4.65,0,0,1,.921,9.916V9.858a4.682,4.682,0,0,0,2.1.59A4.656,4.656,0,0,1,1.583,4.23,13.215,13.215,0,0,0,11.17,9.1a5.248,5.248,0,0,1-.115-1.065A4.654,4.654,0,0,1,19.1,4.849a9.154,9.154,0,0,0,2.951-1.123,4.637,4.637,0,0,1-2.044,2.562,9.321,9.321,0,0,0,2.677-.72,9.994,9.994,0,0,1-2.332,2.4Z" transform="translate(0 -3.381)"/>
</svg>
