<svg xmlns="http://www.w3.org/2000/svg" viewBox="0 0 1561 289"><defs/><path d="M358.69 219.27c-78.67 0-142.45-33.45-142.45-74.71 0-41.26 63.78-74.71 142.45-74.71 78.67 0 142.45 33.45 142.45 74.71 0 41.27-63.78 74.71-142.45 74.71M275.55.33C123.67.33.55 64.9.55 144.56s123.12 144.23 275 144.23 275-64.57 275-144.23S427.43.33 275.55.33M1551.49 173.69v38.85l-29.15-38.85H1516v44.92h4.65v-38.85l29.14 38.85h6.33v-44.92h-4.63zm-68.45 41.54c-10.47 0-17.97-7.63-17.97-19.13 0-11.43 7.5-19.06 17.97-19.06 10.54 0 17.91 7.63 17.91 19.06-.01 11.51-7.38 19.13-17.91 19.13m0-42.58c-13.63 0-23.32 9.9-23.32 23.45 0 13.65 9.69 23.52 23.32 23.52 13.57 0 23.26-9.9 23.26-23.52.01-13.57-9.68-23.45-23.26-23.45m-38.01 45.94h4.99v-44.92h-4.99v44.92zm-7.5-44.9h-38v4.65H1416v40.27h5.04v-40.27h16.47v-4.65h.02zm-67.93 27.01l10.14-23.34 10.08 23.34h-20.22zm27.97 17.89h5.24l-19.52-44.92h-6.85l-19.57 44.92h4.99l5.82-13.37h24.1l5.79 13.37zm-66.04-4.58h-12.22v-35.73h12.22c11.04 0 17.45 7.5 17.45 17.84 0 10.32-6.39 17.89-17.45 17.89m-.52-40.32h-16.67v44.92h16.67c14.55 0 23.34-9.31 23.34-22.49 0-13.13-8.79-22.43-23.34-22.43m-33.71 0v38.85l-29.16-38.85h-6.33v44.92h4.65v-38.85l29.16 38.85h6.33v-44.92h-4.65zm-52.3 0v25.46c0 5.43.2 16.08-13.18 16.08-13.05 0-13.05-10.6-13.05-15.84v-25.72h-4.99v26.96c0 5.17.2 19 17.91 19 18.09 0 18.28-14.4 18.28-19.9v-26.05H1245v.01zm-63.53 41.54c-10.47 0-17.97-7.63-17.97-19.13 0-11.43 7.5-19.06 17.97-19.06 10.52 0 17.91 7.63 17.91 19.06 0 11.51-7.37 19.13-17.91 19.13m0-42.58c-13.65 0-23.34 9.9-23.34 23.45 0 13.65 9.69 23.52 23.34 23.52 13.57 0 23.26-9.9 23.26-23.52 0-13.57-9.69-23.45-23.26-23.45m-29.43 5.69v-4.65h-29.67v44.92h4.97v-19.92h23.78v-4.6h-23.78v-15.77h24.71v.02h-.01zm-58.16 0v-4.65h-30.19v44.92h30.19v-4.65h-25.2v-15.64h24.17v-4.58h-24.17v-15.38h25.2v-.02zm-68.89-.07h14.16c6.33 0 9.95 3.55 9.95 8.59 0 4.91-3.62 8.66-9.95 8.66h-14.16v-17.25zm23.78 40.32h6.02l-14.55-18.8c8.4-.33 14.03-5.69 14.03-13.05 0-7.7-6.26-13.05-15.51-13.05H1020v44.92h4.97v-18.63h9.44l14.36 18.61zm-45.59-44.9v25.46c0 5.43.2 16.08-13.18 16.08-13.05 0-13.05-10.6-13.05-15.84v-25.72h-4.99v26.96c0 5.17.18 19 17.91 19 18.09 0 18.28-14.4 18.28-19.9v-26.05h-4.97v.01zm-38.35 0h-38v4.65h16.47v40.27h5.04v-40.27h16.47v-4.65h.02zm-50.11 0v25.46c0 5.43.18 16.08-13.18 16.08-13.05 0-13.05-10.6-13.05-15.84v-25.72h-4.97v26.96c0 5.17.18 19 17.89 19 18.09 0 18.28-14.4 18.28-19.9v-26.05h-4.97v.01zm-38.76 4.65v-4.65h-29.67v44.92h4.99v-19.92h23.78v-4.6h-23.78v-15.77h24.69v.02h-.01zm-66.05 40.25h4.99v-44.92h-4.99v44.92zM769.2 200.7l10.14-23.34 10.08 23.34H769.2zm27.97 17.89h5.23l-19.52-44.92h-6.85l-19.57 44.92h4.97l5.82-13.37h24.1l5.82 13.37zm-60.02-4.52h-15.33v-16.54h15.33c6.07 0 10.08 3.31 10.08 8.22 0 4.83-3.82 8.32-10.08 8.32m-15.33-35.86h15.71c4.78 0 8.14 2.9 8.14 7.24s-3.16 7.7-8.59 7.7h-15.25v-14.94h-.01zm22.1 16.93c4.21-1.75 6.85-5.43 6.85-9.95 0-6.98-5.76-11.5-13.57-11.5h-20.35v44.92h19.98c9.62 0 15.57-5.69 15.57-12.8 0-5.31-3.57-9.12-8.48-10.67m-43.89-21.45v25.46c0 5.43.18 16.08-13.18 16.08-13.05 0-13.05-10.6-13.05-15.84v-25.72h-4.97v26.96c0 5.17.18 19 17.89 19 18.09 0 18.28-14.4 18.28-19.9v-26.05h-4.97v.01zm-63.05 40.32h-12.22v-35.73h12.22c11.06 0 17.45 7.5 17.45 17.84 0 10.32-6.39 17.89-17.45 17.89m-.52-40.32h-16.67v44.92h16.67c14.55 0 23.32-9.31 23.32-22.49.02-13.13-8.77-22.43-23.32-22.43M1472.11 99.96c.46 3.25 1.29 8.33 1.29 11.13 0 3.49-3.1 6.28-8.25 6.28-5.08 0-8.55-2.57-8.55-9.01v-7.87h-4.25v8.55c0 4.69-2.34 8.33-9.55 8.33-6.59 0-10.82-3.03-10.82-9.55v-7.35h-4.25v7.79c0 5.15-2.49 9.08-9.77 9.08h-52.99c-8.79 0-10.97-2.95-10.97-10.6v-6.28h-4.25v6.59c0 7.57-3.18 10.3-8.48 10.3-5.15 0-8.33-2.64-8.33-9.01v-7.87h-4.25v8.55c0 4.69-2.34 8.33-9.55 8.33-6.59 0-10.82-3.03-10.82-9.55v-7.35h-4.25v7.79c0 5.15-2.49 9.08-9.77 9.08h-3.86c-5.08 0-7.96-1.98-7.96-8.48V81.29l-4.69.61v4.39c-13.02 3.56-22.78 10.75-22.78 18.24 0 5.45 7.11 9.08 23.17 9.31.74 5.71 4.69 8.7 10.38 8.83l.37.02h4.47c5.15 0 10.06-1.66 12.26-6.81 1.88 4.62 6.43 6.89 12.65 6.89 5.08 0 9.92-1.44 12.26-5.83 1.59 3.86 5.23 5.83 10.3 5.83 4.62 0 8.79-1.81 10.6-6.74 1.92 4.75 5.78 6.28 9.64 6.59l1.72.07h54.21c5.15 0 10.06-1.66 12.26-6.81 1.9 4.62 6.43 6.89 12.65 6.89 5.15 0 9.92-1.44 12.26-5.83 1.66 3.93 5.37 5.83 10.52 5.83 8.94 0 12.65-5.15 12.65-13.09 0-3.79-.54-7.72-.98-10.52l-4.29.8zm-194.26 9.09c-11.36-.46-16.88-2.34-19-5.76 2.12-4.54 10.06-9.62 19-12.11v17.87zM759.62 87.09l-4.4-3.78-3.34 4.15 4.25 3.49zM718.42 80.72l-4.37-3.78-3.34 4.17 4.24 3.49zM727.67 80.35l-4.39-3.78-3.34 4.15 4.24 3.49zM1508.23 83.08v-3.1l-.22-.07c-1.74.54-5.37 1.59-6.59 1.59-1.29 0-3.79-2.27-3.79-4.69 0-2.05 1.9-3.25 4.32-3.25 1.37 0 2.64.3 3.93.98l.46-.22-.61-3.1c-1.37-.61-3.1-.9-4.47-.9-3.56 0-6.89 2.34-6.89 6.59 0 2.12.83 4.32 2.95 5.91-1.22.37-2.49.83-3.56 1.13v3.18l.3.22c3.11-.94 9.85-3.07 14.17-4.27zM1275.75 71.34l-4.4-3.78-3.34 4.17 4.25 3.47zM1448.5 93.59c2.42 0 4.69-1.37 5.76-3.79.98 1.05 2.42 1.51 4.01 1.51 3.93 0 6.28-3.1 6.28-7.42 0-2.42-.46-4.39-.98-6.06l-3.1 1.37c.46 1.74.9 3.18.9 4.76 0 2.34-1.29 3.42-2.88 3.42-1.44 0-2.81-.9-2.81-3.1v-3.64l-2.88.83v3.93c0 1.98-.9 4.39-3.4 4.39-1.44 0-2.27-.98-2.27-2.73 0-2.12.46-4.39.46-4.39l-2.81.83s-.76 2.73-.76 5.59c.01 2.99 1.89 4.5 4.48 4.5zM1284.98 70.97l-4.4-3.78-3.32 4.15 4.23 3.49zM750.37 87.46l-4.38-3.78-3.34 4.17 4.25 3.47zM1141.14 151.13l4.25 3.49 3.47-3.86-4.39-3.79zM1180.51 95.1c.76 4.32 1.51 10.3 1.51 14.46 0 4.39-2.05 7.79-9.31 7.79h-3.86c-6.13 0-13.41-1.29-18.85-3.49l-1.13 4.62c4.47 2.12 9.77 4.25 11.43 7.64-2.88 5.15-13.55 9.01-22.64 9.01-11.28 0-16.19-5.3-16.19-15.21 0-3.86.68-8.4 1.9-13.63l-3.86-.76c-1.74 6.06-2.64 11.82-2.64 16.43 0 12.65 7.11 18.54 19.83 18.54 9.01 0 19.15-3.32 24.37-8.62 1.98-2.05 3.03-4.25 3.03-6.74 0-.98-.22-1.88-.76-2.73.92.13 1.79.2 2.6.24l2.7.06h2.49c6.43 0 10.3-1.74 12.41-4.39 2.27-2.64 2.81-6.52 2.81-10.21 0-4.76-.61-9.84-1.22-13.77l-4.62.76zM1173.01 134.64l4.32 3.54 3.57-3.93-4.47-3.86zM1207.01 86.26l-2.95 3.71c8.62 7.03 15.44 14.99 16.65 25.28-3.56 2.05-8.94 3.03-14.16 3.03-5.76 0-9.16-.83-12.48-1.74v4.93c3.1 1.59 7.11 2.2 12.11 2.2 6.67 0 13.16-1.81 16.12-4.54 1.37-1.22 2.12-3.1 2.12-5.3 0-10.47-7.35-20.46-17.41-27.57zM1131.91 151.66l4.23 3.49 3.49-3.86-4.4-3.78zM678.15 134.78l4.32 3.57 3.57-3.95-4.47-3.86zM1548.57 94.51c-6.2 0-10.82 3.32-16.27 13.33-3.71 6.89-6.44 9.55-10.45 9.55h-8.56c.07-.46.07-.98.07-1.51 0-12.11-6.52-23.25-12.87-23.25-2.95 0-5.45 2.12-7.96 5.08-2.81 3.56-5.45 8.79-5.45 13.02 0 5.69 4.93 11.65 19.22 11.65h2.34c-2.05 5.67-9.77 11.36-23.01 14.09l-.15.83 2.73 3.86c12.5-3.25 21.27-9.08 24.15-18.39h8.78c4.47 0 8.62-2.57 11.74-8.25 6.06 5.23 14.68 9.55 18.7 9.55 1.98 0 3.71-1.22 5.15-3.42 2.27-3.32 3.7102-7.87 3.7102-11.5.0298-8.14-4.1502-14.64-11.8702-14.64zm-39.51 22.94h-1.44c-13.09 0-16.51-5-16.51-8.03 0-2.05 3.56-9.69 8.4-12.65 6.43 3.03 9.55 13.41 9.55 18.93v1.75zm43.74 1.73c-5.15-.68-10.97-3.93-17.56-8.62 5.3-9.45 8.33-11.36 12.5-11.36 4.54 0 8.4 4.17 8.4 11.36 0 2.95-1.21 6.35-3.34 8.62z"/><path d="M1079.75 64.92l.76 32.85c.07 3.56.15 7.5.15 9.84 0 6.13-2.49 9.77-8.7 9.77h-3.93c-6.74 0-9.99-3.56-9.99-11.21V89.29l.07-24.83-5.08.46.3 30.74c.07 4.39.22 9.16.22 11.28 0 7.42-2.81 10.45-9.31 10.45h-3.32c-6.67 0-8.33-4.47-10.67-12.41-1.74-6.13-5-10.6-11.28-10.6-6.2 0-10.89 3.42-16.43 13.48-3.71 6.89-6.43 9.55-10.52 9.55h-.76c-8.79 0-10.99-2.95-10.99-10.6v-6.28h-4.25v6.59c0 7.57-3.18 10.3-8.48 10.3-5.15 0-8.33-2.64-8.33-9.01v-7.87h-4.25v8.55c0 4.69-2.34 8.33-9.55 8.33-6.59 0-10.82-3.03-10.82-9.55v-7.35h-4.25v7.79c0 5.15-2.49 9.08-9.77 9.08H765.56c-8.11 0-11.82-2.2-11.82-9.31v-9.92h-4.25v9.77c0 7.03-3.93 9.45-9.23 9.45h-4.76c-5.23 0-8.48-.15-12.5-1.29 2.95-1.9 4.76-3.56 6.2-5.52 1.59-2.05 2.34-3.79 2.34-6.35 0-7.94-5.83-14.75-12.26-14.75-6.35 0-13.41 6.35-13.41 14.16 0 3.56 2.42 8.18 6.74 12.19-4.39 1.05-8.48 1.59-12.33 1.59h-2.95c-8.11 0-11.82-2.2-11.82-9.31v-9.92h-4.25v9.77c0 7.03-3.93 9.45-9.23 9.45h-3.79c-6.96 0-9.92-3.32-10.06-10.3l-1.13-42.62-5.15.46 1.59 34.97c.15 3.56.22 13.02.22 15.36 0 10.21-6.96 17.02-18.54 17.02-11.21 0-15.07-4.91-15.07-13.24 0-3.32.54-7.11 1.29-11.36l-3.86-.76c-1.13 4.76-1.88 9.69-1.88 13.63 0 11.21 5.69 17.19 18.7 17.19 14.38 0 21.95-7.94 23.47-19.07 1.88 2.51 4.84 3.84 8.2 4.04l.89.04h3.56c6.67 0 11.36-2.57 12.8-6.89 1.24 3.86 4.95 6.63 11.6 6.85l.81.04h3.93c5.91 0 11.65-.98 17.71-3.32 4.62 2.34 9.23 3.32 14.38 3.32h6.96c6.67 0 11.36-2.57 12.8-6.89 1.24 3.86 4.95 6.63 11.6 6.85l.81.04h155.78c5.15 0 10.06-1.66 12.26-6.81 1.88 4.62 6.43 6.89 12.65 6.89 5.08 0 9.92-1.44 12.26-5.83 1.59 3.86 5.23 5.83 10.3 5.83 4.62 0 8.79-1.81 10.6-6.74 1.9 4.75 5.78 6.28 9.64 6.59l1.72.07h2.2c4.54 0 8.55-2.49 11.82-8.18 6.06 5.15 14.75 9.31 18.7 9.31 2.12 0 3.93-1.29 5.3-3.49 1.05-1.66 1.88-3.71 2.34-5.76 1.9 5.35 5.06 7.74 9.34 8.03l.96.06h3.25c6.52 0 11.43-2.57 13.02-7.18 1.72 4.34 5.71 6.85 10.01 7.13l.81.06h3.4c8.33 0 14.16-3.49 14.46-13.92.22-4.84.22-11.06.22-17.26l-.15-27.11-5.01.47zm-370.48 37.76c2.42-6.2 6.06-8.11 9.62-8.11 3.18 0 8.11 3.86 9.16 11.89-1.98 2.81-4.32 4.84-9.77 7.42-4.84-3.1-7.57-6.42-9.01-11.2zm313.7 16.5c-5.15-.68-10.99-3.86-17.49-8.55 5.3-9.55 8.33-11.43 12.41-11.43 4.54 0 8.4 4.17 8.4 11.36.02 2.95-1.19 6.35-3.32 8.62z"/></svg>
