<?xml version="1.0" standalone="no"?>
<!DOCTYPE svg PUBLIC "-//W3C//DTD SVG 20010904//EN"
 "http://www.w3.org/TR/2001/REC-SVG-20010904/DTD/svg10.dtd">
<svg version="1.0" xmlns="http://www.w3.org/2000/svg"
 width="512.000000pt" height="512.000000pt" viewBox="0 0 512.000000 512.000000"
 preserveAspectRatio="xMidYMid meet">
<metadata>
Created by potrace 1.11, written by Peter Selinger 2001-2013
</metadata>
<g transform="translate(0.000000,512.000000) scale(0.100000,-0.100000)"
fill="#000000" stroke="none">
<path d="M2329 3586 c-2 -2 -43 -7 -91 -11 -93 -7 -128 -11 -193 -20 -797
-121 -1352 -457 -1450 -878 -19 -82 -13 -214 14 -296 117 -354 583 -656 1212
-785 284 -58 416 -71 734 -71 306 0 437 12 750 71 24 4 155 37 235 59 51 14
227 79 295 108 380 168 620 399 689 663 15 57 16 197 2 258 -43 185 -216 391
-455 540 -176 111 -554 254 -766 290 -16 3 -55 10 -85 16 -30 6 -73 13 -95 16
-22 3 -49 7 -61 9 -11 2 -42 7 -70 10 -27 3 -65 8 -84 11 -44 6 -575 15 -581
10z m1066 -509 c11 -2 43 -8 70 -11 254 -36 515 -155 630 -288 68 -80 90 -133
90 -223 -1 -71 -4 -87 -34 -142 -82 -153 -273 -270 -556 -342 -141 -36 -235
-46 -425 -46 -223 0 -376 21 -545 77 -228 74 -390 190 -453 326 -34 72 -37
174 -8 242 88 201 412 369 783 406 32 3 60 8 61 9 6 5 364 -2 387 -8z"/>
</g>
</svg>
