<svg id="Ebene_1" data-name="Ebene 1" xmlns="http://www.w3.org/2000/svg" viewBox="0 0 32.73 41.83"><defs><style></style></defs><g id="a6955274-0e68-4772-9690-6a16abd80332"><path d="M36.3,49.8H16.48A2.85,2.85,0,0,1,13.63,47V10.81A2.85,2.85,0,0,1,16.48,8h27a2.85,2.85,0,0,1,2.85,2.84V39.73a1,1,0,0,1-.3.7L37,49.5A1,1,0,0,1,36.3,49.8ZM16.48,10a.85.85,0,0,0-.85.84V47a.85.85,0,0,0,.85.84H35.89l8.48-8.49V10.81a.85.85,0,0,0-.85-.84ZM45.37,39.73h0Z" transform="translate(-13.63 -7.97)"/><path d="M36.3,49.8a1,1,0,0,1-1-1V39.69a1,1,0,0,1,1-1h9.07a1,1,0,1,1,0,2H37.3V48.8A1,1,0,0,1,36.3,49.8Z" transform="translate(-13.63 -7.97)"/><path class="cls-1" d="M40.57,31.16H19.29a1,1,0,0,1,0-2H40.57a1,1,0,0,1,0,2Z" transform="translate(-13.63 -7.97)"/><path class="cls-1" d="M40.71,35.56H19.43a1,1,0,0,1,0-2H40.71a1,1,0,1,1,0,2Z" transform="translate(-13.63 -7.97)"/><path d="M40.71,26.62H19.43a1,1,0,0,1,0-2H40.71a1,1,0,0,1,0,2Z" transform="translate(-13.63 -7.97)"/><path d="M27.08,26.37a.76.76,0,0,1-.75-.72l-.49-11.12H24c-.21,4.55-.5,10.8-.5,11.09a.76.76,0,0,1-.75.75h0a.75.75,0,0,1-.74-.75c0-.31.44-10,.53-11.87a.75.75,0,0,1,.75-.72h3.28a.74.74,0,0,1,.75.72l.53,11.84a.75.75,0,0,1-.72.78Z" transform="translate(-13.63 -7.97)"/><path d="M38.24,26.37a.76.76,0,0,1-.75-.75V18.87l-5,2a.75.75,0,0,1-1-.7V18.92l-4.12,1.9a.74.74,0,0,1-1-.36.75.75,0,0,1,.36-1l5.18-2.39a.74.74,0,0,1,.72.05.73.73,0,0,1,.35.63v1.34l5-2a.75.75,0,0,1,1,.69v7.87A.75.75,0,0,1,38.24,26.37Z" transform="translate(-13.63 -7.97)"/></g></svg>
