<svg id="Ebene_1" data-name="Ebene 1" xmlns="http://www.w3.org/2000/svg" viewBox="0 0 41.18 42.38"><path d="M28.93,43.77a6.86,6.86,0,0,1-4.85-2L9.4,27.11l1.27-1.27L25.35,40.49a5.08,5.08,0,0,0,7.16,0L47.19,25.84l1.27,1.27L33.78,41.77A6.86,6.86,0,0,1,28.93,43.77Z" transform="translate(-8.34 -8.09)"/><path d="M46.53,50.48H11.32a3,3,0,0,1-3-3V27.92a3,3,0,0,1,3-3h4v1.8h-4a1.19,1.19,0,0,0-1.18,1.19V47.49a1.18,1.18,0,0,0,1.18,1.18H46.53a1.18,1.18,0,0,0,1.19-1.18V27.92a1.19,1.19,0,0,0-1.19-1.19h-4v-1.8h4a3,3,0,0,1,3,3V47.49A3,3,0,0,1,46.53,50.48Z" transform="translate(-8.34 -8.09)"/><path d="M44.26,30.84h-1.8V10.93a1,1,0,0,0-1-1h-25a1,1,0,0,0-1,1V30.56H13.6V10.93a2.84,2.84,0,0,1,2.84-2.84h25a2.84,2.84,0,0,1,2.84,2.84Z" transform="translate(-8.34 -8.09)"/><path d="M29,27.13a3.91,3.91,0,1,1,3.91-3.91A3.92,3.92,0,0,1,29,27.13Zm0-6a2.11,2.11,0,1,0,2.11,2.11A2.11,2.11,0,0,0,29,21.11Z" transform="translate(-8.34 -8.09)"/><path d="M29,31.33a7.88,7.88,0,1,1,7.88-7.88v1.66a2.89,2.89,0,0,1-5.77,0V23a.89.89,0,0,1,.89-.91h0a.91.91,0,0,1,.9.9V25.1a1.09,1.09,0,0,0,2.17,0V23.45A6.08,6.08,0,1,0,29,29.53a.9.9,0,0,1,0,1.8Z" transform="translate(-8.34 -8.09)"/></svg>
