<svg xmlns="http://www.w3.org/2000/svg" viewBox="0 0 60 60">
  <defs>
    <style>
      .af137ad7-8ebb-4659-81e0-b8ad85d4fd34 {
        fill-rule: evenodd;
      }
    </style>
  </defs>
  <g id="bfd3800d-0ddc-403b-8c07-6574fbb77722" data-name="Layer 1">
    <g>
      <path class="af137ad7-8ebb-4659-81e0-b8ad85d4fd34" d="M49.3,17.13l-.12-.05,0-.12a19.89,19.89,0,0,0-38.3,0l0,.12-.12.05A14.54,14.54,0,0,0,16.52,45H23V42.83H16.54A12.38,12.38,0,0,1,4.18,30.44a12.43,12.43,0,0,1,7.88-11.52l.74-.72a17.71,17.71,0,0,1,34.4,0l.75.85a12.38,12.38,0,0,1-4.49,23.77H37V45h6.48A14.54,14.54,0,0,0,49.3,17.13Z"/>
      <path class="af137ad7-8ebb-4659-81e0-b8ad85d4fd34" d="M41.34,35.28a1.21,1.21,0,0,0,.76-1.09,1.1,1.1,0,0,0-.36-.8L31.21,22.75a1.47,1.47,0,0,0-2.08,0L18.64,33.39a1.14,1.14,0,0,0-.36.8,1.22,1.22,0,0,0,.77,1.09A1.05,1.05,0,0,0,20.26,35l8-8c.26-.26.46-.23.56-.19s.26.16.26.52V56.41a1.15,1.15,0,0,0,2.29,0V27.35c0-.36.16-.48.26-.52s.3-.07.56.19l8,8A1.05,1.05,0,0,0,41.34,35.28Z"/>
    </g>
  </g>
</svg>
