<svg xmlns="http://www.w3.org/2000/svg" viewBox="0 0 60 60">
  <defs>
    <style>
      .aeb75169-ef52-42ee-9043-8d656b006da1 {
        fill-rule: evenodd;
      }
    </style>
  </defs>
  <g id="bcd2dd82-cb58-468d-9d94-e1a536153a62" data-name="Layer 1">
    <path class="aeb75169-ef52-42ee-9043-8d656b006da1" d="M6.37,47.26a3.75,3.75,0,0,1-3.74-3.74v-27a3.75,3.75,0,0,1,3.74-3.74h27a3.75,3.75,0,0,1,3.74,3.74v5.57a1.35,1.35,0,0,1-2.7,0V16.48a1,1,0,0,0-1-1h-27a1,1,0,0,0-1,1v27a1,1,0,0,0,1,1h27a1,1,0,0,0,1-1V38a1.35,1.35,0,1,1,2.7,0v5.57a3.75,3.75,0,0,1-3.74,3.74Zm37-3.18a1.46,1.46,0,0,1-1.3-.91,1.25,1.25,0,0,1,.33-1.42l9.44-9.43a.6.6,0,0,0,.23-.66c0-.12-.19-.31-.62-.31H22.64a1.35,1.35,0,0,1,0-2.7H51.42c.42,0,.57-.19.61-.31s.09-.36-.22-.66l-9.44-9.43A1.25,1.25,0,0,1,42,16.83a1.46,1.46,0,0,1,1.3-.91,1.35,1.35,0,0,1,.94.42l12.57,12.4A1.74,1.74,0,0,1,57.37,30a1.71,1.71,0,0,1-.52,1.24L44.28,43.65A1.32,1.32,0,0,1,43.34,44.08Z"/>
  </g>
</svg>
