<svg xmlns="http://www.w3.org/2000/svg" viewBox="0 0 60 60">
  <g id="eba40777-484d-4872-a815-e990328d730f" data-name="Layer 1">
    <g>
      <path d="M49.77,32.16a1,1,0,0,1-.69-.33,1,1,0,0,1-.25-.72q0-.55,0-1.11a1,1,0,0,1,2,0c0,.41,0,.82,0,1.23a1,1,0,0,1-1,.93Z"/>
      <path d="M47.84,39.72a1,1,0,0,1-.44-.1,1,1,0,0,1-.5-.57,1,1,0,0,1,.05-.76,18.48,18.48,0,0,0,.94-2.3,1,1,0,0,1,1-.68,1.12,1.12,0,0,1,.31,0,1,1,0,0,1,.63,1.26,21,21,0,0,1-1.05,2.55A1,1,0,0,1,47.84,39.72Z"/>
      <path d="M43.09,45.93a1,1,0,0,1-.75-.34,1,1,0,0,1-.24-.72,1,1,0,0,1,.33-.68,19.49,19.49,0,0,0,1.76-1.76,1,1,0,0,1,1.4-.09,1,1,0,0,1,.1,1.4,22.31,22.31,0,0,1-1.95,1.94A1,1,0,0,1,43.09,45.93Z"/>
      <path d="M36.31,49.83a1,1,0,0,1-.94-.68,1.05,1.05,0,0,1,.05-.76,1,1,0,0,1,.58-.5A19.82,19.82,0,0,0,38.3,47a1,1,0,0,1,.44-.11,1,1,0,0,1,.89.56,1.05,1.05,0,0,1,0,.76,1,1,0,0,1-.51.57,19.92,19.92,0,0,1-2.54,1A.91.91,0,0,1,36.31,49.83Z"/>
      <path d="M30,50.85A20.85,20.85,0,1,1,44.74,15.26l4.12,4.12V11.31a1,1,0,0,1,2,0V21.82a1,1,0,0,1-1,1H39.34a1,1,0,0,1,0-2h8.17l-4.17-4.17A18.86,18.86,0,1,0,30,48.86q.55,0,1.11,0h.06a1,1,0,0,1,.06,2Q30.62,50.85,30,50.85Z"/>
    </g>
  </g>
</svg>
