<svg xmlns="http://www.w3.org/2000/svg" width="147.267" height="118.194" viewBox="0 0 147.267 118.194">
  <g id="Gruppe_621" data-name="Gruppe 621" transform="translate(-392 -407.999)">
    <g id="Gruppe_316" data-name="Gruppe 316" transform="translate(392 427.396)" opacity="0.5">
      <path id="Polygon_39" data-name="Polygon 39" d="M57.631,0l57.631,98.8H0Z" transform="translate(115.263 98.797) rotate(180)" opacity="0.102"/>
      <path id="Polygon_58" data-name="Polygon 58" d="M28.755,0,57.51,49.165H0Z" transform="translate(57.753 49.632)" opacity="0.197"/>
    </g>
    <g id="fill_in_data" transform="translate(447.211 403.199)">
      <path id="Pfad_1105" data-name="Pfad 1105" d="M53.354,31.221a1.783,1.783,0,0,1-1.375-.589L35.289,14.138a1.944,1.944,0,0,1,2.749-2.749l16.69,16.69a1.9,1.9,0,0,1,0,2.749A3.64,3.64,0,0,1,53.354,31.221Z" transform="translate(24.957 5.782)"/>
      <path id="Pfad_1106" data-name="Pfad 1106" d="M10.864,87.663a1.783,1.783,0,0,1-1.375-.589A2.741,2.741,0,0,1,8.9,85.307l5.105-22.778a1.08,1.08,0,0,1,.589-.982L70.949,5.389a1.9,1.9,0,0,1,2.749,0L91.371,23.061a1.9,1.9,0,0,1,0,2.749L35.016,82.165a4.293,4.293,0,0,1-.982.589L11.256,87.663ZM17.736,64.1l-4.32,19.047,19.047-4.32L87.051,24.24,72.127,9.316Z" transform="translate(0.096 0)"/>
      <path id="Pfad_1107" data-name="Pfad 1107" d="M31.136,55a1.783,1.783,0,0,1-1.375-.589L12.089,36.738a1.944,1.944,0,0,1,2.749-2.749L32.51,51.661a1.9,1.9,0,0,1,0,2.749A2.121,2.121,0,0,1,31.136,55Z" transform="translate(2.602 27.559)"/>
      <path id="Pfad_1108" data-name="Pfad 1108" d="M90.093,52.727H10.764a1.964,1.964,0,1,1,0-3.927H89.9a1.855,1.855,0,0,1,1.964,1.964A1.813,1.813,0,0,1,90.093,52.727Z" transform="translate(0 42.398)"/>
    </g>
  </g>
</svg>
