<svg xmlns="http://www.w3.org/2000/svg" viewBox="0 0 60 60">
  <g id="b2619da6-8a3a-43d7-83bf-1c885009ec25" data-name="Layer 1">
    <g>
      <path d="M42.94,36.13a.91.91,0,0,0-1.26,0l-2.6,2.6-2.6-2.6a.88.88,0,0,0-1.25,0,.89.89,0,0,0,0,1.25l2.6,2.6-2.6,2.6a.89.89,0,0,0,0,1.25.88.88,0,0,0,1.25,0l2.6-2.6,2.6,2.6a.88.88,0,0,0,1.25-1.25L40.33,40l2.61-2.6A.89.89,0,0,0,42.94,36.13Z"/>
      <path d="M50.94,11.2a3.64,3.64,0,0,0-2.59-1.08H40.17V6.88a.89.89,0,1,0-1.77,0v3.23H21.6V6.88A.88.88,0,0,0,20.72,6a.91.91,0,0,0-.89.89v3.23H11.66A3.67,3.67,0,0,0,8,13.79V50.34A3.66,3.66,0,0,0,11.66,54H48.34A3.66,3.66,0,0,0,52,50.34V13.78A3.62,3.62,0,0,0,50.94,11.2Zm-39.28.69h8.17v1.6a.89.89,0,1,0,1.77,0v-1.6H38.4v1.6a.89.89,0,1,0,1.77,0v-1.6h8.17a1.9,1.9,0,0,1,1.89,1.9v5.15H9.77V13.79A1.9,1.9,0,0,1,11.66,11.89ZM50.24,50.34a1.89,1.89,0,0,1-1.89,1.89H11.66a1.89,1.89,0,0,1-1.89-1.89V20.71H50.23V49.83h0Z"/>
    </g>
  </g>
</svg>
