<svg xmlns="http://www.w3.org/2000/svg" viewBox="0 0 60 60">
  <g id="a6955274-0e68-4772-9690-6a16abd80332" data-name="Layer 1">
    <g>
      <path d="M11,15.18h0a3.48,3.48,0,0,0-3.48,3.49V44.5a.93.93,0,0,0,.07.33l2.77,5.53a.71.71,0,0,0,1.28,0l2.77-5.53a.7.7,0,0,0,.08-.33V18.67A3.49,3.49,0,0,0,11,15.18Zm2.05,27.94v1.22L11,48.44l-2-4.1V42.45h4.1Zm0-17.53V41H9V24.92h4.1Zm0-2.1H9V18.67a2.05,2.05,0,1,1,4.1,0Z"/>
      <path d="M46.25,9.24H21.68a2.63,2.63,0,0,0-2.63,2.63v2.5l-.14,33.2a2.62,2.62,0,0,0,2.14,3H38.67a.8.8,0,0,0,.54-.23l9-9a.71.71,0,0,0,.18-.59V11.87C48.43,10.42,47.7,9.24,46.25,9.24ZM39.48,47.93V41.62H45.8Zm7.41-7.81H38.67a.77.77,0,0,0-.78.77v8.22l-16.16,0a1.09,1.09,0,0,1-.73-.32,1.06,1.06,0,0,1-.32-.77V11.83a1.06,1.06,0,0,1,1.05-1.05H45.84a1.06,1.06,0,0,1,1,1.14Z"/>
      <rect x="23.66" y="15.14" width="19.98" height="1.82" rx="0.85"/>
      <rect x="23.66" y="19.65" width="19.98" height="1.82" rx="0.85"/>
      <rect x="23.66" y="24.05" width="19.98" height="1.82" rx="0.85"/>
      <rect x="23.66" y="28.69" width="19.98" height="1.82" rx="0.85"/>
      <rect x="23.66" y="33.19" width="19.98" height="1.82" rx="0.85"/>
    </g>
  </g>
</svg>
