<svg xmlns="http://www.w3.org/2000/svg" viewBox="0 0 60 60">
  <g id="b97a4eea-e137-4d98-879f-e3cb28b3c5b4" data-name="Layer 1">
    <path d="M30,51.57a41.83,41.83,0,0,1-13.85-2.3,1,1,0,0,1-.64-.91v-9a14.93,14.93,0,0,1,3-9l.16-.23-.2-.19A8.67,8.67,0,0,0,4,36.45v6l.22.07a28.1,28.1,0,0,0,7.22,1.24,1,1,0,0,1,.94,1,1,1,0,0,1-1,.94,30,30,0,0,1-8.69-1.6A1,1,0,0,1,2,43.25v-6.8a10.57,10.57,0,0,1,6.82-9.92l.56-.22L8.88,26a6.76,6.76,0,1,1,7.5,0l-.5.33.56.22a10.58,10.58,0,0,1,3.28,2l.21.19.21-.19a14.23,14.23,0,0,1,5.47-3.27l.66-.22-.6-.35a8.7,8.7,0,1,1,8.66,0l-.6.35.66.22a14.08,14.08,0,0,1,5.47,3.27l.21.19.21-.19a10.78,10.78,0,0,1,3.28-2l.56-.22-.5-.33a6.77,6.77,0,1,1,7.5,0l-.5.33.56.22A10.57,10.57,0,0,1,58,36.45v6.8a1,1,0,0,1-.66.91,30.56,30.56,0,0,1-10,1.62c-.75,0-1.56,0-2.55-.12l-.33,0v2.73a1,1,0,0,1-.66.91A41.16,41.16,0,0,1,30,51.57Zm0-25.1A12.75,12.75,0,0,0,17.46,39.39v8.19l.22.07a39.7,39.7,0,0,0,24.64,0l.22-.07V39.39A12.75,12.75,0,0,0,30,26.47Zm17.37,1.29A8.66,8.66,0,0,0,41.57,30l-.2.19.16.23a14.93,14.93,0,0,1,3,9v4.28l.28,0c.94.08,1.79.12,2.6.12a28.65,28.65,0,0,0,8.46-1.26l.22-.07v-6A8.59,8.59,0,0,0,47.37,27.76Zm0-12.23a4.82,4.82,0,1,0,4.82,4.82A4.82,4.82,0,0,0,47.37,15.53Zm-34.74,0a4.82,4.82,0,1,0,4.81,4.82A4.82,4.82,0,0,0,12.63,15.53ZM30,10.39a6.75,6.75,0,1,0,6.74,6.74A6.74,6.74,0,0,0,30,10.39Z"/>
  </g>
</svg>
