<svg id="Ebene_1" data-name="Ebene 1" xmlns="http://www.w3.org/2000/svg" viewBox="0 0 94.01 92.98"><path d="M83.33,51.75a2,2,0,0,0-1.9-2.15c-4.26-.2-9-.48-9.73-.57a2,2,0,0,0-2.39,1.8A20,20,0,0,1,61.5,65.16a2,2,0,1,0,2.42,3.18,24,24,0,0,0,9.13-15.19c1.21.08,3.1.19,6.07.34A30.22,30.22,0,0,1,50.48,79.27l.38-9.14a5.58,5.58,0,1,0-4-.35l-.39,9.37A30.1,30.1,0,0,1,23,63.75a2,2,0,0,0-3.5,1.93,34.11,34.11,0,0,0,14.6,14l-2.52,6.39a41.08,41.08,0,0,1-11.92-8.72,5.57,5.57,0,1,0-4.88,2.88,5.42,5.42,0,0,0,1.81-.31,45.29,45.29,0,0,0,15.3,10.68,2,2,0,0,0,1.56,0,2,2,0,0,0,1.08-1.11l3.25-8.24a33.73,33.73,0,0,0,10.41,2l.16,0h.08l.13,0c.27,0,.53,0,.8,0A34.23,34.23,0,0,0,83.33,51.75Z" transform="translate(-3.5 -4.03)"/><path d="M96.94,52.13a5.57,5.57,0,0,0-10.28.63,5.51,5.51,0,0,0,2.18,6.43A41.3,41.3,0,0,1,60.51,87.9a5.56,5.56,0,1,0,1.27,3.8,45.36,45.36,0,0,0,31-31.62,5.57,5.57,0,0,0,4.19-7.95Z" transform="translate(-3.5 -4.03)"/><path d="M11.52,58.59a4,4,0,0,0-2.71-3.78c-.14-1-.26-2-.33-2.92s-.1-2-.1-2.92a40.73,40.73,0,0,1,10.8-27.69,4.06,4.06,0,0,0,1.31.24,4,4,0,1,0-4-4,4.4,4.4,0,0,0,.07.73A44.64,44.64,0,0,0,4.38,49c0,1.06,0,2.14.11,3.2s.22,2.28.39,3.41a4,4,0,1,0,6.64,3Z" transform="translate(-3.5 -4.03)"/><path d="M49.32,14.86A34.19,34.19,0,0,0,15.35,46a3.24,3.24,0,0,0-1.18,2.5,3.28,3.28,0,1,0,5.21-2.64A30.11,30.11,0,0,1,65.5,23.57a2,2,0,0,0,1.62.25,2,2,0,0,0,1.25-1.05L72.18,15A41,41,0,0,1,83.67,26.73l-8.31,5.34a6.9,6.9,0,1,0,2.15,5,6.78,6.78,0,0,0-.17-1.51L87.5,29a1.27,1.27,0,0,0,.12-.1,1.09,1.09,0,0,0,.17-.13l.13-.14A1,1,0,0,0,88,28.5a1.4,1.4,0,0,0,.1-.16l.1-.17L88.3,28a1.27,1.27,0,0,0,.06-.18,1.25,1.25,0,0,0,0-.19l0-.19c0-.07,0-.13,0-.2a1.09,1.09,0,0,0,0-.18,1.6,1.6,0,0,0-.05-.21c0-.06,0-.12,0-.17a1.21,1.21,0,0,0-.09-.2l-.06-.14,0,0v0h0A45,45,0,0,0,34.5,6.53a2,2,0,0,0,1.32,3.78A40.78,40.78,0,0,1,68.74,13l-3,6.09A34,34,0,0,0,49.32,14.86Z" transform="translate(-3.5 -4.03)"/><path d="M48.79,29.12a4.16,4.16,0,1,0,.33-4A24,24,0,0,0,30.67,64a2,2,0,0,0,1.56.75,2,2,0,0,0,1.25-.44,2,2,0,0,0,.31-2.81,19.74,19.74,0,0,1-4.35-12.45A20,20,0,0,1,48.79,29.12Z" transform="translate(-3.5 -4.03)"/><path d="M44.29,86.78a4,4,0,1,0,4,4A4,4,0,0,0,44.29,86.78Z" transform="translate(-3.5 -4.03)"/><path d="M86.94,42.6A4,4,0,1,0,90.21,38,4,4,0,0,0,86.94,42.6Z" transform="translate(-3.5 -4.03)"/></svg>
