<svg xmlns="http://www.w3.org/2000/svg" viewBox="0 0 60 60">
  <g id="bf70daee-2924-41e6-bec2-a8fb9459be4b" data-name="Layer 1">
    <g>
      <path d="M27.33,34.07a4.38,4.38,0,0,0-1.76,8.4l.59-1.34a2.92,2.92,0,0,1,1.17-5.6,2.8,2.8,0,0,1,1.17.25.73.73,0,0,0,1-.38.72.72,0,0,0,.06-.29V29.74h3.72a4.49,4.49,0,0,0-.06.73,4.39,4.39,0,0,0,3.51,4.3L37,33.34a2.93,2.93,0,0,1-2.34-2.87,2.8,2.8,0,0,1,.25-1.17.73.73,0,0,0-.38-1,.72.72,0,0,0-.29-.06h-4.7V24.56a3.6,3.6,0,0,0,.73.06,4.39,4.39,0,1,0,0-8.77h0a3.61,3.61,0,0,0-.73.07V12.2H42a3.65,3.65,0,0,1,3.65,3.65V28.28H40.91a.73.73,0,0,0-.73.73.72.72,0,0,0,.06.29,3,3,0,0,1,.25,1.17H42a4.49,4.49,0,0,0-.06-.73h4.45a.73.73,0,0,0,.73-.73V15.85A5.13,5.13,0,0,0,42,10.74H15.63a5.11,5.11,0,0,0-5.11,5.11V42.11a5.11,5.11,0,0,0,5.11,5.11h8V45.76h-8A3.65,3.65,0,0,1,12,42.11V29.74h4.69a.78.78,0,0,0,.73-.84.94.94,0,0,0-.06-.24,2.93,2.93,0,1,1,5.36,0,.76.76,0,0,0,.35,1,.88.88,0,0,0,.32.07h4.69v4.39A4.49,4.49,0,0,0,27.33,34.07ZM15.63,12.2H28.06v4.69a.73.73,0,0,0,.73.73.72.72,0,0,0,.29-.06,3,3,0,0,1,1.17-.25,2.93,2.93,0,1,1-1.17,5.61.72.72,0,0,0-1,.37.77.77,0,0,0-.06.3v4.63H24.35c0-.22,0-.45.06-.67v-.06a4.39,4.39,0,0,0-8.78,0v.06a3.79,3.79,0,0,0,.06.67H12V15.85A3.66,3.66,0,0,1,15.63,12.2Z"/>
      <path d="M46.67,37.92l-2.36-6.3a.73.73,0,0,0-.94-.43h0l-4.76,2.11a.73.73,0,0,0-.38.93c.08.2.15.35.23.52s.15.31.24.54a2.93,2.93,0,1,1-5.48,2.07A3,3,0,0,1,33,36.18a.73.73,0,0,0-.69-.77.93.93,0,0,0-.29.05l-5.08,1.91a.74.74,0,0,0-.43.94l1.82,4.87a4.4,4.4,0,1,0,2.36,8.44,5.29,5.29,0,0,0,.68-.32l1.31,3.49a.73.73,0,0,0,.94.43h0l10.83-4.08,1.93-.73a12.54,12.54,0,0,0,2.06-1.09,3.22,3.22,0,0,0,1-2.1A6.75,6.75,0,0,0,48.93,44l-1.37-3.66Zm1.13,9.61A3.05,3.05,0,0,1,46,49.14L33.79,53.59,32.4,49.87a.75.75,0,0,0-.53-.46h-.15a.75.75,0,0,0-.52.2,2.92,2.92,0,1,1-3.06-4.85,2.58,2.58,0,0,1,.73-.16,2.26,2.26,0,0,1,.45,0,.73.73,0,0,0,.77-.69.7.7,0,0,0,0-.29l-1.91-5.1,3.48-1.31a4.38,4.38,0,0,0,5.13,3.48,5.9,5.9,0,0,0,.72-.2A4.41,4.41,0,0,0,40,34.8c-.07-.18-.13-.33-.19-.45l3.37-1.49,4.35,11.63A4.18,4.18,0,0,1,47.8,47.53Z"/>
    </g>
  </g>
</svg>
