<?xml version="1.0" encoding="utf-8"?>
<!-- Generator: Adobe Illustrator 23.1.1, SVG Export Plug-In . SVG Version: 6.00 Build 0)  -->
<svg version="1.1" xmlns="http://www.w3.org/2000/svg" xmlns:xlink="http://www.w3.org/1999/xlink" x="0px" y="0px"
	 viewBox="0 0 60 60" style="enable-background:new 0 0 60 60;" xml:space="preserve">
<g id="Layer_2">
</g>
<g id="dots" class="st1">
</g>
<g id="Layer_1">
	<g>
		<path d="M46.83,37.78l-0.44-0.17l0.39-0.26c1.48-0.99,2.36-2.64,2.36-4.41c0-2.92-2.38-5.3-5.3-5.3c-2.92,0-5.3,2.38-5.3,5.3
			c0,1.77,0.88,3.42,2.36,4.41l0.39,0.26l-0.44,0.17c-0.98,0.38-1.84,0.9-2.57,1.54l-0.17,0.15l-0.16-0.15
			c-1.22-1.17-2.66-2.03-4.28-2.56l-0.52-0.17l0.47-0.27c2.11-1.22,3.42-3.48,3.42-5.9c0-3.75-3.05-6.81-6.81-6.81
			c-3.75,0-6.81,3.05-6.81,6.81c0,2.42,1.31,4.68,3.42,5.9l0.47,0.27l-0.52,0.17c-1.62,0.53-3.06,1.39-4.28,2.56l-0.16,0.16
			l-0.17-0.15c-0.73-0.65-1.59-1.17-2.57-1.54l-0.44-0.17l0.39-0.26c1.48-0.99,2.36-2.64,2.36-4.41c0-2.92-2.38-5.3-5.3-5.3
			s-5.3,2.38-5.3,5.3c0,1.77,0.88,3.42,2.36,4.41l0.39,0.26l-0.44,0.17c-3.24,1.25-5.34,4.3-5.34,7.77v5.32
			c0,0.32,0.21,0.61,0.51,0.72c2.11,0.73,4.4,1.15,6.81,1.25c0.41,0,0.75-0.32,0.76-0.73c0.01-0.2-0.06-0.4-0.2-0.55
			c-0.14-0.15-0.33-0.24-0.53-0.25c-1.89-0.07-3.79-0.4-5.65-0.97l-0.17-0.05v-4.73c0-3.82,2.98-6.81,6.79-6.81
			c1.67,0,3.29,0.62,4.54,1.75l0.16,0.15l-0.13,0.18c-1.51,2.04-2.31,4.47-2.31,7.03v7.02c0,0.32,0.2,0.61,0.5,0.72
			c3.3,1.17,7.05,1.8,10.84,1.8c3.84,0,7.48-0.6,10.83-1.8c0.3-0.11,0.51-0.39,0.51-0.71v-2.14l0.26,0.02
			c0.77,0.06,1.4,0.09,1.99,0.09c2.73,0,5.43-0.44,7.8-1.26c0.3-0.11,0.51-0.39,0.51-0.71v-5.32
			C52.16,42.08,50.07,39.03,46.83,37.78z M12.88,32.94c0-2.08,1.69-3.77,3.77-3.77s3.77,1.69,3.77,3.77s-1.69,3.77-3.77,3.77
			S12.88,35.02,12.88,32.94z M40.08,32.94c0-2.08,1.69-3.77,3.77-3.77c2.08,0,3.77,1.69,3.77,3.77s-1.69,3.77-3.77,3.77
			C41.77,36.71,40.08,35.02,40.08,32.94z M24.97,30.42c0-2.91,2.37-5.28,5.28-5.28s5.28,2.37,5.28,5.28s-2.37,5.28-5.28,5.28
			S24.97,33.33,24.97,30.42z M40.06,54.25l-0.17,0.06c-3.11,1.02-6.35,1.54-9.64,1.54c-3.28,0-6.53-0.52-9.64-1.54l-0.17-0.06v-6.41
			c0-5.57,4.4-10.11,9.81-10.11c5.41,0,9.81,4.54,9.81,10.11V54.25z M50.63,50.27l-0.17,0.05c-2.13,0.65-4.35,0.99-6.62,0.99
			c-0.64,0-1.3-0.03-2.04-0.1l-0.22-0.02v-3.35c0-2.56-0.8-4.99-2.31-7.03l-0.13-0.18l0.16-0.15c1.25-1.13,2.86-1.75,4.54-1.75
			c3.81,0,6.79,2.99,6.79,6.81V50.27z"/>
		<path d="M35.94,6.65L35,8.26c0.31,0.17,0.61,0.34,0.91,0.54l0.94-1.62L35.94,6.65z"/>
		<path d="M16.73,12.89l1.61,0.94c0.15-0.29,0.33-0.59,0.54-0.91l-1.62-0.94L16.73,12.89z"/>
		<path d="M42.06,15.41l1.61-0.94l-0.53-0.92l-1.62,0.95C41.73,14.83,41.91,15.13,42.06,15.41z"/>
		<path d="M22.82,8.98c0.35-0.23,0.64-0.4,0.91-0.54L22.8,6.82l-0.92,0.54L22.82,8.98z"/>
		<polygon points="29.8,5.29 29,6.08 29,20.67 39.31,20.67 40.1,19.87 39.31,19.08 30.59,19.08 30.59,6.08 		"/>
		<path d="M11.95,20.68c0.02,0.39,0.05,0.78,0.09,1.17c0,0,0,0.01,0,0.01c0.12,1.1,0.34,2.19,0.66,3.26h0.03
			c0.19,0.62,0.41,1.23,0.67,1.83c0.45-0.25,0.94-0.44,1.44-0.58c-0.29-0.67-0.53-1.35-0.73-2.04c-0.34-1.19-0.55-2.4-0.61-3.62
			l-0.01-0.29h3.36v-1.06H13.5l0.01-0.29c0.43-8.7,7.59-15.52,16.3-15.52c1.88,0,3.71,0.3,5.43,0.86c1.98,0.7,3.85,1.8,5.5,3.29
			l0.21,0.19l0.75,0.75l0.19,0.21c1,1.1,1.88,2.31,2.55,3.68l0,0c1.49,3.03,2.06,6.55,1.41,10.13l-0.05,0.28
			c0,0-0.74,2.61-1.02,3.24c0.53,0.08,1.04,0.21,1.53,0.4c0.37-0.9,0.68-1.82,0.9-2.77c2.18-9.32-3.41-18.61-12.53-21.2l0.01-0.01
			c-6.04-1.71-12.81-0.2-17.55,4.55c-2.79,2.79-4.46,6.29-5.01,9.92c-0.01,0.09-0.03,0.18-0.04,0.27c-0.03,0.23-0.07,0.46-0.09,0.69
			c-0.04,0.36-0.06,0.72-0.07,1.09c0,0.07,0,0.14-0.01,0.21c-0.01,0.18-0.01,0.36-0.01,0.55c0,0.16,0.01,0.32,0.02,0.49
			C11.94,20.48,11.95,20.58,11.95,20.68z"/>
	</g>
</g>
</svg>
