<svg xmlns="http://www.w3.org/2000/svg" viewBox="0 0 60 60">
  <g id="ad974be0-dc34-4b1f-8c3e-6a0ad2e5024b" data-name="Layer 1">
    <g>
      <path d="M47.3,19.91,36,8.65a1.07,1.07,0,0,0-.69-.29H11.53a3.28,3.28,0,0,0-2.67,3.81l.17,33v3.13a3.3,3.3,0,0,0,3.3,3.3h31.9a3.3,3.3,0,0,0,3.3-3.3V20.65A.88.88,0,0,0,47.3,19.91Zm-11-8.19,7.9,7.9h-7.9Zm8,38H12.39a1.32,1.32,0,0,1-1.31-1.3V11.55a1.37,1.37,0,0,1,1.31-1.37h0l22,.06V20.53a1,1,0,0,0,1,1H45.6V48.28A1.32,1.32,0,0,1,44.29,49.7Z"/>
      <path d="M35.76,35.77a2.09,2.09,0,0,0-1.54-.91,2.32,2.32,0,0,0-1.7.57l-1.37,1.31a.16.16,0,0,1-.11.06c-.06,0-.12,0-.12-.06L26.6,31a2,2,0,0,0-1.82-.86,2,2,0,0,0-1.7,1L15.74,42.82a2.12,2.12,0,0,0,1.82,3.24H38.94a2.11,2.11,0,0,0,1.88-1.13,2.22,2.22,0,0,0-.17-2.22Zm3.18,8.36H17.56c-.06,0-.11-.06-.17-.11a.1.1,0,0,1,0-.17l7.34-11.66c.05-.06.05-.06.11-.06h0c.06,0,.11,0,.11.06l4.33,5.74a2,2,0,0,0,1.53.86,2.23,2.23,0,0,0,1.65-.57l1.36-1.31a.19.19,0,0,1,.12-.06c.06,0,.11,0,.11.06l5,6.94A.1.1,0,0,1,39,44C39.06,44.13,39,44.13,38.94,44.13Z"/>
      <path d="M37.35,31.79a3.41,3.41,0,1,0-3.41-3.41A3.45,3.45,0,0,0,37.35,31.79Zm0-4.83a1.42,1.42,0,1,1-1.42,1.42A1.4,1.4,0,0,1,37.35,27Z"/>
    </g>
  </g>
</svg>
