<svg xmlns="http://www.w3.org/2000/svg" viewBox="0 0 60 60">
  <g id="a5caf859-8955-4ae1-a22c-a082a094a0fd" data-name="Layer 1">
    <path d="M19.62,49a8.66,8.66,0,0,1-6.13-14.78l6.92-6.93a.87.87,0,0,1,.61-.25.83.83,0,0,1,.59.25.82.82,0,0,1,.24.59.83.83,0,0,1-.25.58l-6.93,6.93a7,7,0,1,0,9.9,9.9l6.92-6.92a6.94,6.94,0,0,0,0-9.9.82.82,0,0,1-.25-.59.83.83,0,0,1,.25-.59.85.85,0,0,1,.59-.24.83.83,0,0,1,.58.24,8.68,8.68,0,0,1,0,12.26l-6.92,6.92A8.61,8.61,0,0,1,19.62,49ZM28.3,33.25c-.23,0-.41,0-1-.58a8.7,8.7,0,0,1,0-12.26l6.93-6.92A8.66,8.66,0,0,1,46.51,25.74l-6.92,6.93a.87.87,0,0,1-.61.25.84.84,0,0,1-.83-.84.83.83,0,0,1,.25-.59l6.93-6.92a7,7,0,1,0-9.9-9.9l-6.92,6.92a6.94,6.94,0,0,0,0,9.9,4.62,4.62,0,0,1,.45.45A.85.85,0,0,1,29,33,1,1,0,0,1,28.3,33.25Z"/>
  </g>
</svg>
