<svg xmlns="http://www.w3.org/2000/svg" viewBox="0 0 60 60">
  <g id="ae5ecf1e-71e2-4e6f-b4df-ae9e7b262d41" data-name="Layer 1">
    <path d="M32.52,38.56A19,19,0,0,0,30.06.72h-.12a19,19,0,0,0-2.46,37.84l.81.11v8.64h-7a1.65,1.65,0,0,0,0,3.29h7v7A1.65,1.65,0,0,0,30,59.28h.1a1.64,1.64,0,0,0,1.65-1.64v-7h7a1.65,1.65,0,0,0,0-3.29h-7V38.67Zm-8.15-4.18a33.75,33.75,0,0,1-4.78-2.81,15.78,15.78,0,0,1-5-8.59l-.08-.36c-.06-.36-.21-1.62-.23-1.88l0-.45v-.06c0-.2,0-.41,0-.61a15.8,15.8,0,0,1,31.57-1c0,.18,0,1.18,0,1.18,0,.46-.08,1.49-.08,1.49a15.55,15.55,0,0,1-5.13,10.14v0l-.62.5a15.49,15.49,0,0,1-4.21,2.45l-1.09.4a16.21,16.21,0,0,1-3.45.68c-.3,0-.6,0-.91,0H30l-1.21-.05a16,16,0,0,1-3.35-.65Z"/>
  </g>
</svg>
