<svg xmlns="http://www.w3.org/2000/svg" viewBox="0 0 60 60">
  <g id="f3e34319-d532-4aa0-afdc-67b7e4c9340c" data-name="Layer 1">
    <path d="M34.16,50c-.59,0-.58-1.08-.54-1.33L35.32,39H21.48l-1.71,9.7c-.15,1.17-.64,1.3-1.32,1.3-.16,0-.95-.13-.83-.8L19.42,39h-10a.85.85,0,0,1-.88-.8c0-1,.84-1.31,1.51-1.31h9.72l2.43-13.8H12a.65.65,0,0,1-.52-.2.73.73,0,0,1-.12-.6c.12-.68.15-1.27,1.52-1.3H22.6l1.71-9.7c.12-.69.36-1.47,1.51-1.31a.78.78,0,0,1,.52.2.75.75,0,0,1,.12.61L24.66,21H38.5l1.71-9.7c.12-.69.36-1.39,1.52-1.31a.73.73,0,0,1,.52.2.72.72,0,0,1,.11.61L40.57,21H50.79a.65.65,0,0,1,.52.2,1.48,1.48,0,0,1,.12.86,1.45,1.45,0,0,1-1.52,1H40.19L37.76,36.9H48a.69.69,0,0,1,.52.2,1.51,1.51,0,0,1,.11.87,1.45,1.45,0,0,1-1.51,1H37.39l-1.71,9.7C35.44,49.9,35.06,50.1,34.16,50ZM21.85,36.9H35.7l2.43-13.8H24.29Z"/>
  </g>
</svg>
