<svg xmlns="http://www.w3.org/2000/svg" viewBox="0 0 60 60">
  <g id="b216d067-447c-4579-8595-f19602b329f3" data-name="Layer 1">
    <path d="M51.64,14.85H8.36A3.25,3.25,0,0,0,5.12,18.1V41.9a3.25,3.25,0,0,0,3.24,3.25H51.64a3.25,3.25,0,0,0,3.24-3.25V18.1A3.25,3.25,0,0,0,51.64,14.85Zm-.52,1.93L34.78,33.12a6.76,6.76,0,0,1-9.56,0L8.88,16.78ZM53,41.9a1.35,1.35,0,0,1-.49,1,3.4,3.4,0,0,1-1.18.3h-43a1.33,1.33,0,0,1-.71-.3,1.42,1.42,0,0,1-.49-1V18.1a1,1,0,0,1,.06-.36L23.86,34.49a8.69,8.69,0,0,0,12.28,0L52.9,17.74a1.36,1.36,0,0,1,.05.36Z"/>
  </g>
</svg>
