<svg xmlns="http://www.w3.org/2000/svg" viewBox="0 0 60 60">
  <g id="bb0d8351-4c03-463c-9b07-004ce7d6f749" data-name="Layer 1">
    <path d="M30,7A23,23,0,1,0,53,30,23,23,0,0,0,30,7ZM16.5,46.43a13.95,13.95,0,0,1,27,0,21.22,21.22,0,0,1-27,0Zm5.86-20.64A7.64,7.64,0,1,1,30,33.44,7.65,7.65,0,0,1,22.36,25.79ZM45,45.07a16.43,16.43,0,0,0-2.32-4.45l-1.87-2.13a15.5,15.5,0,0,0-5.25-3.3L34,34.58l1.4-1a9.5,9.5,0,1,0-10.74,0l1.4,1-1.59.61a15.46,15.46,0,0,0-5.27,3.33L17.3,40.65A16.18,16.18,0,0,0,15,45.06a21.28,21.28,0,1,1,30,0Z"/>
  </g>
</svg>
