<svg xmlns="http://www.w3.org/2000/svg" viewBox="0 0 60 60">
  <g id="af61ed14-150d-49b3-b80c-7fa025981daf" data-name="Layer 1">
    <g>
      <path class="b02b56ae-4e11-45d1-a4a7-73fba8192f9f" d="M26.24,29.88a5.44,5.44,0,0,0,2.65-.12A9,9,0,0,0,30,29.45a9,9,0,0,0,1.11.31,5.44,5.44,0,0,0,2.65.12,10.11,10.11,0,0,0,5.58-4.4A11.91,11.91,0,0,0,41,19a1,1,0,0,0-2,0v0a10.07,10.07,0,0,1-1.34,5.42A8.35,8.35,0,0,1,33.24,28a6.19,6.19,0,0,1-1.7-.14,12.63,12.63,0,0,1-1.22-.34,1,1,0,0,0-.64,0,12.63,12.63,0,0,1-1.22.34,5.83,5.83,0,0,1-1.7.14,8.35,8.35,0,0,1-4.42-3.56A10.07,10.07,0,0,1,21,19c0-1.81.3-3.72,1.26-4.82A5.46,5.46,0,0,1,26,12.5a6.85,6.85,0,0,1,2.08.64c.77.36,1.37.71,1.37.71a1,1,0,0,0,1,0s.6-.35,1.37-.71A7.15,7.15,0,0,1,34,12.5a5.49,5.49,0,0,1,3.78,1.65,1,1,0,0,0,1.51-1.31A7.21,7.21,0,0,0,34,10.5a6.77,6.77,0,0,0-3,.83l-.05,0a7,7,0,0,0-3.51-5.94L27,5.14A1,1,0,0,0,26.54,5h0a1,1,0,0,0-1,1,1,1,0,0,0,.52.92l.47.27A4.94,4.94,0,0,1,29,11.34h0a6.77,6.77,0,0,0-3-.83h0a7.23,7.23,0,0,0-5.23,2.34C19.22,14.6,19,17,19,19a11.91,11.91,0,0,0,1.66,6.53A10.11,10.11,0,0,0,26.24,29.88Z"/>
      <path class="b02b56ae-4e11-45d1-a4a7-73fba8192f9f" d="M32.37,9.49h.26a18.13,18.13,0,0,0,1.92-.37,6.88,6.88,0,0,0,3.13-1.39,5.68,5.68,0,0,0,1.37-2.48,15.26,15.26,0,0,0,.43-1.54,1,1,0,0,0-.77-1.19l-.21,0h0a17.68,17.68,0,0,0-1.94.13,5.76,5.76,0,0,0-3.22,1.12,5.41,5.41,0,0,0-1.46,2.84,15.13,15.13,0,0,0-.37,1.77A1,1,0,0,0,32.37,9.49Zm1.45-2.38a5.76,5.76,0,0,1,.84-1.86,6.12,6.12,0,0,1,2.15-.64c.19,0,.18,0,.35,0h0v0a6.32,6.32,0,0,1-.83,1.66,7.4,7.4,0,0,1-2.25.91c-.16,0-.15,0-.29.05C33.81,7.17,33.79,7.18,33.82,7.11Z"/>
      <path class="b02b56ae-4e11-45d1-a4a7-73fba8192f9f" d="M53.5,31.5h-46a1,1,0,1,0,0,2H8v10H6.5a3,3,0,0,0-3,3v8a3,3,0,0,0,3,3h46a1,1,0,0,0,0-2H52v-10h1.5a3,3,0,0,0,3-3v-8A3,3,0,0,0,53.5,31.5ZM50,55.5H6.5a1,1,0,0,1-1-1v-8a1,1,0,0,1,1-1H8V53a1,1,0,0,0,1,1,1,1,0,0,0,.55-.17L12,52.19l2.45,1.63a1,1,0,0,0,1.38-.28A1,1,0,0,0,16,53V48a1,1,0,0,0-2,0v3.14l-1.45-1a1,1,0,0,0-1.1,0l-1.45,1V45.5H50Zm4.5-13a1,1,0,0,1-1,1H10v-10H50v5.13l-1.45-1a1,1,0,0,0-1.1,0l-1.45,1V36a1,1,0,0,0-2,0v4.5a1,1,0,0,0,1,1,1,1,0,0,0,.55-.17L48,39.7l2.45,1.63A1,1,0,0,0,52,40.5v-7h1.5a1,1,0,0,1,1,1Z"/>
      <rect x="13" y="35.5" width="28" height="2"/>
      <rect x="13" y="39.5" width="28" height="2"/>
      <rect x="19" y="47.5" width="28" height="2"/>
      <rect x="19" y="51.5" width="28" height="2"/>
    </g>
  </g>
</svg>
