<svg xmlns="http://www.w3.org/2000/svg" viewBox="0 0 60 60">
  <g id="a8337117-7d0b-4ff3-8a5a-76803692a76c" data-name="Layer 1">
    <g>
      <path d="M45,5.47H15a3.84,3.84,0,0,0-3.83,3.84V50.69A3.84,3.84,0,0,0,15,54.53H45a3.84,3.84,0,0,0,3.83-3.84V9.31A3.84,3.84,0,0,0,45,5.47ZM15,7H45a2.3,2.3,0,0,1,2.3,2.3V50.69A2.3,2.3,0,0,1,45,53H15a2.3,2.3,0,0,1-2.3-2.3V9.31A2.3,2.3,0,0,1,15,7Z"/>
      <path d="M44.71,8.87H15.29a.77.77,0,0,0-.77.76V47a.78.78,0,0,0,.77.77H44.71a.78.78,0,0,0,.77-.77V9.63A.77.77,0,0,0,44.71,8.87ZM16.06,46.2V10.4H43.94V46.2Z"/>
      <path d="M30,48.53a1.84,1.84,0,1,0,1.84,1.84h0A1.85,1.85,0,0,0,30,48.53Zm0,2.67a.83.83,0,1,1,.83-.83h0A.83.83,0,0,1,30,51.2Z"/>
    </g>
  </g>
</svg>
