<?xml version="1.0" encoding="utf-8"?>
<!-- Generator: Adobe Illustrator 24.0.1, SVG Export Plug-In . SVG Version: 6.00 Build 0)  -->
<svg version="1.1" id="Logo" xmlns="http://www.w3.org/2000/svg" xmlns:xlink="http://www.w3.org/1999/xlink" x="0px" y="0px"
	 viewBox="0 0 512 512" style="enable-background:new 0 0 512 512;" xml:space="preserve">
<style type="text/css">
</style>
<g>
	<path class="st0" d="M161.02,475.18c193.22,0,298.88-160.07,298.88-298.88c0-4.55-0.09-9.08-0.3-13.58
		c20.51-14.83,38.34-33.33,52.4-54.39c-18.82,8.36-39.08,14-60.32,16.54c21.69-13,38.34-33.58,46.19-58.11
		c-20.3,12.03-42.77,20.78-66.7,25.5C412,71.84,384.7,59.07,354.49,59.07c-58.02,0-105.06,47.05-105.06,105.04
		c0,8.24,0.92,16.26,2.73,23.95c-87.3-4.39-164.72-46.19-216.52-109.75c-9.03,15.52-14.23,33.56-14.23,52.8
		c0,36.44,18.55,68.62,46.74,87.44c-17.23-0.53-33.42-5.26-47.58-13.14c-0.02,0.44-0.02,0.88-0.02,1.34
		c0,50.88,36.21,93.35,84.27,102.98c-8.82,2.4-18.11,3.69-27.69,3.69c-6.77,0-13.35-0.67-19.75-1.89
		c13.37,41.73,52.15,72.1,98.13,72.96c-35.96,28.18-81.25,44.97-130.47,44.97c-8.48,0-16.84-0.48-25.06-1.45
		C46.49,457.79,101.69,475.18,161.02,475.18"/>
</g>
</svg>
