<svg class="svg-icon" style="width: 1em; height: 1em;vertical-align: middle;fill: currentColor;overflow: hidden;" viewBox="0 0 1024 1024" version="1.1" xmlns="http://www.w3.org/2000/svg"><path d="M874.666667 576c-12.8 0-21.333333 8.533333-21.333333 21.333333 0 187.733333-153.6 341.333333-341.333333 341.333333-187.733333 0-341.333333-153.6-341.333333-341.333333 0-187.733333 153.6-341.333333 341.333333-341.333333l0 149.333333c0 12.8 8.533333 21.333333 21.333333 21.333333 4.266667 0 8.533333-2.133333 10.666667-4.266667l0 0 256-170.666667 0 0c6.4-4.266667 10.666667-10.666667 10.666667-17.066667s-4.266667-12.8-10.666667-17.066667l0 0-256-170.666667 0 0C541.866667 44.8 537.6 42.666667 533.333333 42.666667c-12.8 0-21.333333 8.533333-21.333333 21.333333l0 149.333333c-211.2 0-384 172.8-384 384s172.8 384 384 384c211.2 0 384-172.8 384-384C896 584.533333 887.466667 576 874.666667 576zM554.666667 104.533333l196.266667 130.133333L554.666667 364.8 554.666667 104.533333z"  /></svg>