<?xml version="1.0" encoding="UTF-8"?>
<svg width="20px" height="20px" viewBox="0 0 20 20" version="1.1" xmlns="http://www.w3.org/2000/svg" xmlns:xlink="http://www.w3.org/1999/xlink">
    <!-- Generator: Sketch 58 (84663) - https://sketch.com -->
    <title>codecanyon/block-icon</title>
    <desc>Created with Sketch.</desc>
    <defs>
        <path d="M12.4358974,1.15384615 C13.1367521,1.15384615 13.4871795,1.41201264 13.4871795,1.92834563 C13.4871795,2.44467861 13.1367521,2.7028451 12.4358974,2.7028451 L4.55128205,2.7028451 C3.97067501,2.7028451 3.5,3.1651854 3.5,3.73551106 L3.5,17.4183351 C3.5,17.9886608 3.97067501,18.4510011 4.55128205,18.4510011 L15.0641026,18.4510011 C15.6447096,18.4510011 16.1153846,17.9886608 16.1153846,17.4183351 L16.1153846,6.31717597 C16.1153846,5.628732 16.3782051,5.28451001 16.9038462,5.28451001 C17.4294872,5.28451001 17.6923077,5.628732 17.6923077,6.31717597 L17.6923077,17.9346681 C17.6923077,19.0753194 16.7509577,20 15.5897436,20 L4.02564103,20 C2.86442694,20 1.92307692,19.0753194 1.92307692,17.9346681 L1.92307692,3.21917808 C1.92307692,2.07852675 2.86442694,1.15384615 4.02564103,1.15384615 L12.4358974,1.15384615 Z M13.8157895,14.6153846 C14.4698109,14.6153846 15,15.1319791 15,15.7692308 C15,16.4064824 14.4698109,16.9230769 13.8157895,16.9230769 L6.18421053,16.9230769 C5.53018911,16.9230769 5,16.4064824 5,15.7692308 C5,15.1319791 5.53018911,14.6153846 6.18421053,14.6153846 L13.8157895,14.6153846 Z M14.4736842,12.3076923 C14.7643604,12.3076923 15,12.5659896 15,12.8846154 C15,13.2032412 14.7643604,13.4615385 14.4736842,13.4615385 L5.52631579,13.4615385 C5.23563961,13.4615385 5,13.2032412 5,12.8846154 C5,12.5659896 5.23563961,12.3076923 5.52631579,12.3076923 L14.4736842,12.3076923 Z M14.4736842,10.3846154 C14.7643604,10.3846154 15,10.6429126 15,10.9615385 C15,11.2801643 14.7643604,11.5384615 14.4736842,11.5384615 L5.52631579,11.5384615 C5.23563961,11.5384615 5,11.2801643 5,10.9615385 C5,10.6429126 5.23563961,10.3846154 5.52631579,10.3846154 L14.4736842,10.3846154 Z M11.6045757,3.55195019 C11.6595949,3.58912681 11.7070539,3.63635714 11.7444432,3.69114401 L15,8.46153846 L5,8.46153846 L8.27130422,4.93210835 C8.46858354,4.71926249 8.80156939,4.7061686 9.01504893,4.90286232 C9.04140689,4.92714777 9.06520434,4.95405752 9.08606974,4.98317148 L9.5530392,5.63474424 L10.8736174,3.69194947 C11.0366912,3.45204035 11.3639523,3.38936054 11.6045757,3.55195019 Z M5.96153846,3.84615385 C6.49258149,3.84615385 6.92307692,4.27664928 6.92307692,4.80769231 C6.92307692,5.33873534 6.49258149,5.76923077 5.96153846,5.76923077 C5.43049543,5.76923077 5,5.33873534 5,4.80769231 C5,4.27664928 5.43049543,3.84615385 5.96153846,3.84615385 Z M18.5518723,0.112774192 L18.7333797,0.294281515 C18.8837452,0.444647105 18.8837452,0.688437894 18.7333797,0.838803483 L17.8414139,1.73076923 L18.7333797,2.62273498 C18.8837452,2.77310057 18.8837452,3.01689136 18.7333797,3.16725695 L18.5518723,3.34876427 C18.4015067,3.49912986 18.157716,3.49912986 18.0073504,3.34876427 L17.1153846,2.45679852 L16.2234189,3.34876427 C16.0730533,3.49912986 15.8292625,3.49912986 15.6788969,3.34876427 L15.4973896,3.16725695 C15.347024,3.01689136 15.347024,2.77310057 15.4973896,2.62273498 L16.3893553,1.73076923 L15.4973896,0.838803483 C15.347024,0.688437894 15.347024,0.444647105 15.4973896,0.294281515 L15.6788969,0.112774192 C15.8292625,-0.0375913974 16.0730533,-0.0375913974 16.2234189,0.112774192 L17.1153846,1.00473994 L18.0073504,0.112774192 C18.157716,-0.0375913974 18.4015067,-0.0375913974 18.5518723,0.112774192 Z" id="path-1"></path>
    </defs>
    <g id="codecanyon/block-icon" stroke="none" stroke-width="1" fill="none" fill-rule="evenodd">
        <mask id="mask-2" fill="white">
            <use xlink:href="#path-1"></use>
        </mask>
        <use id="Combined-Shape" fill="#555D66" xlink:href="#path-1"></use>
    </g>
</svg>
