<?xml version="1.0" encoding="UTF-8"?>
<svg width="48px" height="48px" viewBox="0 0 48 48" version="1.1" xmlns="http://www.w3.org/2000/svg" xmlns:xlink="http://www.w3.org/1999/xlink">
    <!-- Generator: Sketch 60 (88103) - https://sketch.com -->
    <title>codecanyon/logo</title>
    <desc>Created with Sketch.</desc>
    <defs>
        <path d="M24,48 C10.7446154,48 0,37.2553846 0,24 C0,19.7169231 1.12615385,15.7015385 3.09230769,12.2123077 C3.91384615,11.1323077 5.36307692,11.9815385 4.56923077,13.4676923 C2.87076923,16.6061538 1.90153846,20.1969231 1.90153846,24 C1.90153846,36.2030769 11.7969231,46.0984615 24,46.0984615 C36.2030769,46.0984615 46.0984615,36.2030769 46.0984615,24 C46.0984615,11.7969231 36.2030769,1.90153846 24,1.90153846 C19.9846154,1.90153846 16.2184615,2.97230769 12.9692308,4.84615385 C11.3169231,5.76923077 10.6707692,4.05230769 11.6769231,3.39692308 C15.2861538,1.24615385 19.4953846,0 24,0 C37.2553846,0 48,10.7446154 48,24 C48,37.2553846 37.2553846,48 24,48 Z M9.36923077,10.5876923 L9.36923077,10.5876923 C9.36923077,10.8 9.20307692,10.9661538 9,10.9661538 C8.93538462,10.9661538 8.88,10.9476923 8.82461538,10.92 L7.06153846,10.0338462 C6.34153846,9.71076923 5.86153846,9.07384615 5.85230769,8.35384615 C5.85230769,7.80923077 5.76923077,7.18153846 4.90153846,6.43384615 C3.19384615,4.95692308 0.433846154,2.55692308 0.138461538,2.29846154 L0.12,2.28 L0.110769231,2.28 C0.0461538462,2.21538462 0,2.11384615 0,2.01230769 C0,1.80923077 0.166153846,1.64307692 0.369230769,1.64307692 C0.433846154,1.64307692 0.498461538,1.66153846 0.553846154,1.68923077 L8.15076923,5.56615385 C8.16923077,5.57538462 8.19692308,5.59384615 8.21538462,5.60307692 L8.24307692,5.62153846 C8.91692308,5.99076923 9.36923077,6.62769231 9.36923077,7.34769231 L9.36923077,10.5876923 Z M26.88,12.8 C27.7333333,12.8 28.16,13.12 28.16,13.76 C28.16,14.4 27.7333333,14.72 26.88,14.72 L17.28,14.72 C16.5730755,14.72 16,15.2930755 16,16 L16,32.96 C16,33.6669245 16.5730755,34.24 17.28,34.24 L30.08,34.24 C30.7869245,34.24 31.36,33.6669245 31.36,32.96 L31.36,19.2 C31.36,18.3466667 31.68,17.92 32.32,17.92 C32.96,17.92 33.28,18.3466667 33.28,19.2 L33.28,33.6 C33.28,35.013849 32.133849,36.16 30.72,36.16 L16.64,36.16 C15.226151,36.16 14.08,35.013849 14.08,33.6 L14.08,15.36 C14.08,13.946151 15.226151,12.8 16.64,12.8 L26.88,12.8 Z M28.32,29.44 C29.11529,29.44 29.76,30.08471 29.76,30.88 C29.76,31.67529 29.11529,32.32 28.32,32.32 L19.04,32.32 C18.24471,32.32 17.6,31.67529 17.6,30.88 C17.6,30.08471 18.24471,29.44 19.04,29.44 L28.32,29.44 Z M29.12,26.56 C29.4734622,26.56 29.76,26.8465378 29.76,27.2 C29.76,27.5534622 29.4734622,27.84 29.12,27.84 L18.24,27.84 C17.8865378,27.84 17.6,27.5534622 17.6,27.2 C17.6,26.8465378 17.8865378,26.56 18.24,26.56 L29.12,26.56 Z M29.12,24.32 C29.4734622,24.32 29.76,24.6065378 29.76,24.96 C29.76,25.3134622 29.4734622,25.6 29.12,25.6 L18.24,25.6 C17.8865378,25.6 17.6,25.3134622 17.6,24.96 C17.6,24.6065378 17.8865378,24.32 18.24,24.32 L29.12,24.32 Z M25.631164,16.0921666 C25.6980674,16.137508 25.7557775,16.1951111 25.8012429,16.2619302 L29.76,22.08 L17.6,22.08 L21.5779059,17.7754355 C21.8177976,17.5158444 22.2227084,17.4998748 22.4822995,17.7397664 C22.5143508,17.7693855 22.5432885,17.8022051 22.5686608,17.8377131 L23.1364957,18.6323845 L24.7423188,16.2629126 C24.9406165,15.9703146 25.338566,15.893869 25.631164,16.0921666 Z M19.04,16.32 C19.6585589,16.32 20.16,16.8214411 20.16,17.44 C20.16,18.0585589 19.6585589,18.56 19.04,18.56 C18.4214411,18.56 17.92,18.0585589 17.92,17.44 C17.92,16.8214411 18.4214411,16.32 19.04,16.32 Z M34.1107821,11.7429437 L34.3370563,11.9692179 C34.5245079,12.1566696 34.5245079,12.4605887 34.3370563,12.6480404 L33.2250967,13.76 L34.3370563,14.8719596 C34.5245079,15.0594113 34.5245079,15.3633304 34.3370563,15.5507821 L34.1107821,15.7770563 C33.9233304,15.9645079 33.6194113,15.9645079 33.4319596,15.7770563 L32.32,14.6650967 L31.2080404,15.7770563 C31.0205887,15.9645079 30.7166696,15.9645079 30.5292179,15.7770563 L30.3029437,15.5507821 C30.1154921,15.3633304 30.1154921,15.0594113 30.3029437,14.8719596 L31.4149033,13.76 L30.3029437,12.6480404 C30.1154921,12.4605887 30.1154921,12.1566696 30.3029437,11.9692179 L30.5292179,11.7429437 C30.7166696,11.5554921 31.0205887,11.5554921 31.2080404,11.7429437 L32.32,12.8549033 L33.4319596,11.7429437 C33.6194113,11.5554921 33.9233304,11.5554921 34.1107821,11.7429437 Z" id="path-1"></path>
    </defs>
    <g id="codecanyon/logo" stroke="none" stroke-width="1" fill="none" fill-rule="evenodd">
        <g id="app-icon/popup">
            <mask id="mask-2" fill="white">
                <use xlink:href="#path-1"></use>
            </mask>
            <use id="Shape" fill="#FFFFFF" fill-rule="evenodd" xlink:href="#path-1"></use>
        </g>
    </g>
</svg>
