<?xml version="1.0" encoding="UTF-8"?>
<svg width="18px" height="18px" viewBox="0 0 18 18" version="1.1" xmlns="http://www.w3.org/2000/svg" xmlns:xlink="http://www.w3.org/1999/xlink">
    <!-- Generator: Sketch 58 (84663) - https://sketch.com -->
    <title>codecanyon/menu-icon</title>
    <desc>Created with Sketch.</desc>
    <defs>
        <path d="M11.1923077,1.03846154 C11.8230769,1.03846154 12.1384615,1.27081138 12.1384615,1.73551106 C12.1384615,2.20021075 11.8230769,2.43256059 11.1923077,2.43256059 L4.09615385,2.43256059 C3.57360751,2.43256059 3.15,2.84866686 3.15,3.36195996 L3.15,15.6765016 C3.15,16.1897947 3.57360751,16.6059009 4.09615385,16.6059009 L13.5576923,16.6059009 C14.0802386,16.6059009 14.5038462,16.1897947 14.5038462,15.6765016 L14.5038462,5.68545838 C14.5038462,5.0658588 14.7403846,4.75605901 15.2134615,4.75605901 C15.6865385,4.75605901 15.9230769,5.0658588 15.9230769,5.68545838 L15.9230769,16.1412013 C15.9230769,17.1677875 15.0758619,18 14.0307692,18 L3.62307692,18 C2.57798424,18 1.73076923,17.1677875 1.73076923,16.1412013 L1.73076923,2.89726027 C1.73076923,1.87067408 2.57798424,1.03846154 3.62307692,1.03846154 L11.1923077,1.03846154 Z M12.4342105,13.1538462 C13.0228298,13.1538462 13.5,13.6187812 13.5,14.1923077 C13.5,14.7658342 13.0228298,15.2307692 12.4342105,15.2307692 L5.56578947,15.2307692 C4.9771702,15.2307692 4.5,14.7658342 4.5,14.1923077 C4.5,13.6187812 4.9771702,13.1538462 5.56578947,13.1538462 L12.4342105,13.1538462 Z M13.0263158,11.0769231 C13.2879244,11.0769231 13.5,11.3093906 13.5,11.5961538 C13.5,11.8829171 13.2879244,12.1153846 13.0263158,12.1153846 L4.97368421,12.1153846 C4.71207564,12.1153846 4.5,11.8829171 4.5,11.5961538 C4.5,11.3093906 4.71207564,11.0769231 4.97368421,11.0769231 L13.0263158,11.0769231 Z M13.0263158,9.34615385 C13.2879244,9.34615385 13.5,9.57862138 13.5,9.86538462 C13.5,10.1521479 13.2879244,10.3846154 13.0263158,10.3846154 L4.97368421,10.3846154 C4.71207564,10.3846154 4.5,10.1521479 4.5,9.86538462 C4.5,9.57862138 4.71207564,9.34615385 4.97368421,9.34615385 L13.0263158,9.34615385 Z M10.4441181,3.19675517 C10.4936354,3.23021412 10.5363485,3.27272143 10.5699989,3.32202961 L13.5,7.61538462 L4.5,7.61538462 L7.4441738,4.43889752 C7.62172518,4.24733624 7.92141245,4.23555174 8.11354404,4.41257609 C8.1372662,4.43443299 8.1586839,4.45865177 8.17746277,4.48485433 L8.59773528,5.07126982 L9.7862557,3.32275452 C9.93302205,3.10683632 10.2275571,3.05042449 10.4441181,3.19675517 Z M5.36538462,3.46153846 C5.84332334,3.46153846 6.23076923,3.84898435 6.23076923,4.32692308 C6.23076923,4.8048618 5.84332334,5.19230769 5.36538462,5.19230769 C4.88744589,5.19230769 4.5,4.8048618 4.5,4.32692308 C4.5,3.84898435 4.88744589,3.46153846 5.36538462,3.46153846 Z M14.601077,0.101496773 L15.4038462,0.904265946 L16.2066153,0.101496773 C16.3419444,-0.0338322576 16.5613561,-0.0338322576 16.6966851,0.101496773 L16.8600417,0.264853363 C16.9953707,0.400182394 16.9953707,0.619594104 16.8600417,0.754923135 L16.0572725,1.55769231 L16.8600417,2.36046148 C16.9953707,2.49579051 16.9953707,2.71520222 16.8600417,2.85053125 L16.6966851,3.01388784 C16.5613561,3.14921687 16.3419444,3.14921687 16.2066153,3.01388784 L15.4038462,2.21111867 L14.601077,3.01388784 C14.465748,3.14921687 14.2463362,3.14921687 14.1110072,3.01388784 L13.9476506,2.85053125 C13.8123216,2.71520222 13.8123216,2.49579051 13.9476506,2.36046148 L14.7504198,1.55769231 L13.9476506,0.754923135 C13.8123216,0.619594104 13.8123216,0.400182394 13.9476506,0.264853363 L14.1110072,0.101496773 C14.2463362,-0.0338322576 14.465748,-0.0338322576 14.601077,0.101496773 Z" id="path-1"></path>
    </defs>
    <g id="codecanyon/menu-icon" stroke="none" stroke-width="1" fill="none" fill-rule="evenodd">
        <mask id="mask-2" fill="white">
            <use xlink:href="#path-1"></use>
        </mask>
        <use id="Combined-Shape" fill="#FFFFFF" xlink:href="#path-1"></use>
    </g>
</svg>