<svg xmlns="http://www.w3.org/2000/svg" viewBox="0 0 575.17 454.58"><g id="Layer_2" data-name="Layer 2"><g id="Layer_1-2" data-name="Layer 1"><path d="M0,1.21H106.49V208.52H72.65V123.19H37.05v86.08H0Zm70.67,85.9V35.94H38V87.11Z"/><path d="M0,246.18H106.51V367.3H38.1v52.64h68v34.3H0V333.43H71.21V279.74H0Z"/><path d="M504.11,209H469.67V.05c32.64,0,64.46-.25,96.26.39C569.06.5,574.74,6,574.76,9c.51,66.27.39,132.55.39,199.74H539.71V123.32h-35.6ZM538.23,35.65H504.74V87.1h33.49Z"/><path d="M261.75,454.56H158.9V246.91H261.75Zm-68-173.84V419.59h32.75V280.72Z"/><path d="M158.64,1.05h104.2c0,27.21,1.32,53.44-.76,79.39-.68,8.44-10.26,16.17-16.26,24.94,32.94,29.41,9.8,68.09,18.43,103.48H228.82V123.37H193.11v85.11H158.64Zm68.47,34.79H193.8V86.92h33.31Z"/><path d="M417.32,122H348.9v52.77h68.28v33.76h-103V1.47H417.11v33H348.68V87.81h68.64Z"/><path d="M573.74,454.58h-104V421.32h32.31V281l-32.67-1.8v-32H539V420.29h34.79Z"/><path d="M417.67,247.27v207H384.43V280.87H314.06v-33.6Z"/></g></g></svg>