<svg xmlns="http://www.w3.org/2000/svg" viewBox="0 0 60 60">
  <defs>
    <style>
      .e3abc909-876e-4a75-9bdc-c03834c4d8c4 {
        fill-rule: evenodd;
      }
    </style>
  </defs>
  <g id="b807b193-a21a-48d4-a06a-4972a4dcada9" data-name="Layer 1">
    <g>
      <path class="e3abc909-876e-4a75-9bdc-c03834c4d8c4" d="M46.23,13.77a23,23,0,1,0,0,32.46A23,23,0,0,0,46.23,13.77ZM15,45a21.27,21.27,0,1,1,30.16.08A21.32,21.32,0,0,1,15,45Z"/>
      <path class="e3abc909-876e-4a75-9bdc-c03834c4d8c4" d="M36.62,35.39,31.23,30l5.39-5.39a.87.87,0,0,0-1.23-1.23L30,28.77l-5.39-5.39a.87.87,0,1,0-1.23,1.23L28.77,30l-5.39,5.39a.87.87,0,0,0,1.23,1.23L30,31.23l5.39,5.39a.87.87,0,0,0,1.23-1.23Z"/>
    </g>
  </g>
</svg>
