<svg xmlns="http://www.w3.org/2000/svg" viewBox="0 0 60 60">
  <g id="bf58ffd4-d8ce-4694-b7ff-7ea6ed96aac0" data-name="Layer 1">
    <g>
      <path d="M15.43,43.15A42.32,42.32,0,0,1,3.45,31l-.23-.34.23-.33c7.23-10.72,16.7-16.63,26.66-16.63A26.29,26.29,0,0,1,42,16.62L43.53,15a28.49,28.49,0,0,0-13.42-3.43c-11,0-21.32,6.57-29,18.5a1.08,1.08,0,0,0,0,1.15A45.29,45.29,0,0,0,13.9,44.67Z"/>
      <path d="M59.15,30.12A47.34,47.34,0,0,0,48.64,18.35l-1.52,1.52a44.06,44.06,0,0,1,9.66,10.49l.23.33-.23.34C49.54,41.75,40.07,47.65,30.11,47.65A25.71,25.71,0,0,1,21,46L19.39,47.6a28,28,0,0,0,10.72,2.16c11,0,21.33-6.57,29-18.51A1,1,0,0,0,59.15,30.12Z"/>
      <path d="M51.41,11.38a1.24,1.24,0,0,0-1.7.2L11.77,49.52a1.22,1.22,0,0,0-.19,1.68A1.21,1.21,0,0,0,13.26,51l38-37.95A1.22,1.22,0,0,0,51.41,11.38Z"/>
      <path d="M30.11,19.26A11.34,11.34,0,0,1,37,21.58l1.51-1.51a13.46,13.46,0,0,0-13.39-1.95,1.06,1.06,0,0,0-.2,1.85,4,4,0,1,1-5.51,5.5,1.09,1.09,0,0,0-.89-.45h-.1a1.09,1.09,0,0,0-.86.66,13.51,13.51,0,0,0,2,13.39L21,37.57a11.36,11.36,0,0,1-2.32-6.88A11.6,11.6,0,0,1,18.82,29l.13-.85.75.42a6.15,6.15,0,0,0,2.95.77,6.09,6.09,0,0,0,6.08-6.08A6,6,0,0,0,28,20.29l-.43-.76.86-.13A11.6,11.6,0,0,1,30.11,19.26Z"/>
      <path d="M30.11,42.13a11.4,11.4,0,0,1-4.37-.88l-1.58,1.58A13.52,13.52,0,0,0,42.27,24.72l-1.6,1.6A11.41,11.41,0,0,1,30.11,42.13Z"/>
    </g>
  </g>
</svg>
