<svg xmlns="http://www.w3.org/2000/svg" viewBox="0 0 60 60">
  <g id="ac1a604f-2b42-4001-ab16-88550bde7e0f" data-name="Layer 1">
    <g>
      <path d="M30.37,7A22.85,22.85,0,1,0,53.22,29.89,22.88,22.88,0,0,0,30.37,7Zm0,44A21.18,21.18,0,1,1,51.65,29.89,21.23,21.23,0,0,1,30.37,51.07Z"/>
      <path d="M39.5,22.91a.73.73,0,0,0-.54.25L28.61,34.88l-4.75-5.13a.78.78,0,0,0-.54-.23.68.68,0,0,0-.52.22.91.91,0,0,0,0,1.18l5.29,5.7a.78.78,0,0,0,.54.25.88.88,0,0,0,.58-.26L40.05,24.3a.88.88,0,0,0,0-1.17A.69.69,0,0,0,39.5,22.91Z"/>
    </g>
  </g>
</svg>
