<svg xmlns="http://www.w3.org/2000/svg" viewBox="0 0 60 60">
  <defs>
    <style>
      .adcad1f1-d56c-4f44-8f7c-f037543ed256 {
        fill-rule: evenodd;
      }
    </style>
  </defs>
  <g id="f24bb0d7-0a64-4c10-977c-93b60249bd1d" data-name="Layer 1">
    <g>
      <path class="adcad1f1-d56c-4f44-8f7c-f037543ed256" d="M30,7A23,23,0,1,0,53,30,23,23,0,0,0,30,7Zm0,44.24A21.28,21.28,0,1,1,51.38,30,21.33,21.33,0,0,1,30,51.28Z"/>
      <path class="adcad1f1-d56c-4f44-8f7c-f037543ed256" d="M38.5,29.13H30.87V21.5a.87.87,0,0,0-1.74,0v7.63H21.5a.87.87,0,0,0,0,1.74h7.63V38.5a.87.87,0,0,0,1.74,0V30.87H38.5a.87.87,0,0,0,0-1.74Z"/>
    </g>
  </g>
</svg>
