<svg xmlns="http://www.w3.org/2000/svg" viewBox="0 0 60 60">
  <g id="b96e323f-556a-420a-821f-a4260e3ab3f1" data-name="Layer 1">
    <path d="M27.11,55.15A4.23,4.23,0,0,1,23,51.53l-.59-4-.47-.22A19,19,0,0,1,19,45.6l-.42-.29-3.85,1.53a4.14,4.14,0,0,1-1.55.29,4.21,4.21,0,0,1-3.66-2.07l-2.9-5a4.21,4.21,0,0,1,1.07-5.42l3.25-2.52-.05-.52c0-.54-.07-1.09-.07-1.64s0-1.1.07-1.64l.05-.52L7.65,25.32a4.22,4.22,0,0,1-1.07-5.43l2.9-5a4.23,4.23,0,0,1,3.66-2.06,4.14,4.14,0,0,1,1.55.29l3.85,1.53L19,14.4a19.22,19.22,0,0,1,2.92-1.68l.47-.22.59-4a4.23,4.23,0,0,1,4.16-3.62h5.78a4.23,4.23,0,0,1,4.16,3.62l.59,4,.47.22A18.41,18.41,0,0,1,41,14.4l.43.29,3.85-1.53a4.15,4.15,0,0,1,1.55-.3,4.24,4.24,0,0,1,3.66,2.07l2.9,5a4.22,4.22,0,0,1-1.07,5.43L49.1,27.84l0,.52c.05.54.07,1.09.07,1.64s0,1.1-.07,1.64l0,.52,3.25,2.52a4.22,4.22,0,0,1,1.07,5.43l-2.9,5a4.21,4.21,0,0,1-3.66,2.07,4.14,4.14,0,0,1-1.55-.29l-3.85-1.53L41,45.6a18.41,18.41,0,0,1-2.92,1.68l-.47.22-.59,4a4.23,4.23,0,0,1-4.16,3.62Zm-2.34-3.88a2.41,2.41,0,0,0,2.34,2h5.78a2.41,2.41,0,0,0,2.34-2l.73-5.1a17.08,17.08,0,0,0,5.19-3L46,45.13a2.35,2.35,0,0,0,.87.16,2.38,2.38,0,0,0,2.07-1.15l2.89-5a2.4,2.4,0,0,0-.6-3L47.12,33a17,17,0,0,0,0-5.92l4.1-3.18a2.4,2.4,0,0,0,.6-3l-2.89-5a2.38,2.38,0,0,0-2.07-1.15,2.35,2.35,0,0,0-.87.16L41.15,16.8a17.08,17.08,0,0,0-5.19-3l-.73-5.1a2.41,2.41,0,0,0-2.34-2H27.11a2.41,2.41,0,0,0-2.34,2L24,13.83a17.08,17.08,0,0,0-5.19,3L14,14.87a2.35,2.35,0,0,0-.87-.16,2.38,2.38,0,0,0-2.07,1.15l-2.89,5a2.4,2.4,0,0,0,.6,3L12.88,27a17,17,0,0,0,0,5.92l-4.1,3.18a2.4,2.4,0,0,0-.6,3l2.89,5a2.38,2.38,0,0,0,2.07,1.15,2.35,2.35,0,0,0,.87-.16l4.84-1.93a17.08,17.08,0,0,0,5.19,3ZM30,39.86A9.86,9.86,0,1,1,39.86,30,9.87,9.87,0,0,1,30,39.86ZM30,22a8,8,0,1,0,8,8A8,8,0,0,0,30,22Z"/>
  </g>
</svg>
