<svg xmlns="http://www.w3.org/2000/svg" width="13.6" height="16.144" viewBox="0 0 13.6 16.144"><g transform="translate(0 0.025)"><path d="M6.6,7.8A4.3,4.3,0,0,0,9.4,6.7a3.552,3.552,0,0,0,1.1-2.8A4.3,4.3,0,0,0,9.4,1.1a3.924,3.924,0,0,0-5.5,0h0A3.949,3.949,0,0,0,2.7,3.9,4.3,4.3,0,0,0,3.8,6.7,4.3,4.3,0,0,0,6.6,7.8Z"/><path d="M13.5,12.4c0-.3-.1-.7-.1-1a3.81,3.81,0,0,0-.3-1,4.179,4.179,0,0,0-.4-1,5.547,5.547,0,0,0-.6-.8L11.2,8A5.019,5.019,0,0,0,10,7.8a.713.713,0,0,0-.6.3,2.994,2.994,0,0,0-.8.4,2.01,2.01,0,0,1-.8.4,3.75,3.75,0,0,1-2.1,0,3.552,3.552,0,0,1-.9-.4,2.092,2.092,0,0,0-.6-.4.864.864,0,0,0-.6-.3A5.019,5.019,0,0,0,2.4,8a2.034,2.034,0,0,0-.9.6,2.7,2.7,0,0,0-.7.8,3,3,0,0,0-.4,1c-.1.3-.2.7-.3,1a3.4,3.4,0,0,0-.1,1v1a2.792,2.792,0,0,0,.8,2,2.7,2.7,0,0,0,2.1.7h7.8a3.139,3.139,0,0,0,2.1-.7,2.973,2.973,0,0,0,.8-2A3.4,3.4,0,0,1,13.5,12.4Z"/></g></svg>