<svg xmlns="http://www.w3.org/2000/svg" viewBox="0 0 60 60">
  <g id="fbfa53a4-8b9a-4f13-bca0-3647826fbaa2" data-name="Layer 1">
    <g>
      <path d="M40.13,9.25a1,1,0,0,0-1-.76H39l-6.5,1.33a.86.86,0,0,0-.59.4,1,1,0,0,0-.15.72,1,1,0,0,0,.94.76l.18,0,4.37-.89-.16.39C30.27,27.26,14.27,28.51,9.53,28.51H8.87a1,1,0,0,0-.89.9.85.85,0,0,0,.23.65,1,1,0,0,0,.64.31h.58c3.52,0,21.48-.85,29.1-17.74l.29-.63.82,4.18a1,1,0,0,0,.93.75h.19a.89.89,0,0,0,.6-.4,1,1,0,0,0,.15-.72Z"/>
      <path d="M23.62,40.29a4.33,4.33,0,0,0-4.32,4.32v2.58a4.32,4.32,0,0,0,8.64,0V44.66A4.35,4.35,0,0,0,23.62,40.29Zm2.46,6.9a2.46,2.46,0,1,1-4.92,0V44.66a2.46,2.46,0,0,1,4.92,0Z"/>
      <path d="M36.38,30.12a4.32,4.32,0,0,0-4.32,4.32V47.19a4.32,4.32,0,0,0,8.64,0V34.44A4.27,4.27,0,0,0,36.38,30.12Zm2.46,17.07a2.46,2.46,0,1,1-4.92,0V34.44a2.46,2.46,0,1,1,4.92,0Z"/>
      <path d="M10.86,36.9a4.33,4.33,0,0,0-4.32,4.32v6a4.32,4.32,0,0,0,4.32,4.32,4.38,4.38,0,0,0,4.32-4.32v-6A4.33,4.33,0,0,0,10.86,36.9Zm2.46,10.29a2.47,2.47,0,0,1-2.46,2.47A2.5,2.5,0,0,1,8.4,47.19v-6a2.47,2.47,0,0,1,2.46-2.47,2.49,2.49,0,0,1,2.46,2.47Z"/>
      <path d="M49.14,20.75a4.33,4.33,0,0,0-4.32,4.32V47.19a4.32,4.32,0,0,0,4.32,4.32,4.38,4.38,0,0,0,4.32-4.32V25.07A4.33,4.33,0,0,0,49.14,20.75ZM51.6,47.19a2.47,2.47,0,0,1-2.46,2.47,2.49,2.49,0,0,1-2.46-2.47V25.07a2.46,2.46,0,0,1,2.46-2.46,2.49,2.49,0,0,1,2.46,2.46Z"/>
    </g>
  </g>
</svg>
