<?xml version="1.0" encoding="utf-8"?>
<!-- Generator: Adobe Illustrator 24.0.1, SVG Export Plug-In . SVG Version: 6.00 Build 0)  -->
<svg version="1.1" id="Ebene_1" xmlns="http://www.w3.org/2000/svg" xmlns:xlink="http://www.w3.org/1999/xlink" x="0px" y="0px"
	 viewBox="0 0 100 100" style="enable-background:new 0 0 100 100;" xml:space="preserve">
<g>
	<path d="M47.5,62.6H44v-6c0-1.1-0.9-2-2-2h-1.8c0.8-2.7,2.4-5.2,4.8-7.1c4.8-4,7.6-9.8,7.6-16c0-5.7-2.4-11.3-6.6-15.2
		c-4.2-4-9.8-5.9-15.6-5.5c-10.2,0.7-18.5,8.9-19.2,19.2c-0.5,6.9,2.4,13.6,7.8,17.8h0c2.2,1.7,3.7,4.1,4.5,6.9h-1.5
		c-1.1,0-2,0.9-2,2v6h-3.4c-4.1,0-7.4,3.3-7.4,7.4v15.9c0,1.1,0.9,2,2,2h41.7c1.1,0,2-0.9,2-2V69.9C54.8,65.9,51.5,62.6,47.5,62.6z
		 M21.4,44.5c-4.4-3.5-6.7-8.8-6.3-14.4c0.6-8.2,7.3-14.9,15.5-15.5c4.7-0.3,9.2,1.3,12.6,4.5c3.4,3.2,5.3,7.6,5.3,12.3
		c0,5-2.2,9.8-6.1,13c-3.3,2.7-5.5,6.3-6.4,10.2h-2.3v-7.9l6-8.6c0.5-0.8,0.5-1.8,0.1-2.7c-0.5-0.8-1.3-1.4-2.3-1.4H26
		c-1,0-1.8,0.5-2.3,1.4c-0.4,0.8-0.4,1.8,0.1,2.7l5.9,8.6v7.9h-2.3C26.7,50.5,24.5,47,21.4,44.5z M31.8,42.5L28.6,38h6.3L31.8,42.5z
		 M23.8,58.5h2h11.9H40v4H23.8V58.5z M16.5,66.6h5.4H42h5.5c1.9,0,3.4,1.5,3.4,3.4v6.9H13.1v-6.9C13.1,68.1,14.6,66.6,16.5,66.6z
		 M13.1,83.9v-3h37.7v3H13.1z"/>
	<path d="M72.5,29.9c0.6,0,1.3-0.3,1.7-0.9c0.6-0.9,0.4-2.2-0.6-2.8L67.2,22h19.5v24.4c0,1.1,0.9,2,2,2s2-0.9,2-2V20
		c0-1.1-0.9-2-2-2H67.2l6.5-4.3c0.9-0.6,1.2-1.9,0.6-2.8c-0.6-0.9-1.9-1.2-2.8-0.6l-12,8c-0.6,0.4-0.9,1-0.9,1.7s0.3,1.3,0.9,1.7
		l12,8C71.8,29.8,72.2,29.9,72.5,29.9z"/>
	<path d="M90.8,70.6l-2.6-1.5c0.3-1.4,0.3-2.9,0-4.3l2.6-1.5c0.3-0.2,0.4-0.5,0.3-0.9c-0.7-2.2-1.8-4.1-3.3-5.8
		c-0.2-0.2-0.6-0.3-0.9-0.1l-2.6,1.5c-1.1-0.9-2.3-1.7-3.7-2.1v-3c0-0.3-0.2-0.6-0.6-0.7c-2.2-0.5-4.5-0.5-6.7,0
		c-0.3,0.1-0.6,0.4-0.6,0.7v3c-1.4,0.5-2.6,1.2-3.7,2.1l-2.6-1.5c-0.3-0.2-0.7-0.1-0.9,0.1c-1.5,1.6-2.7,3.6-3.3,5.8
		c-0.1,0.3,0,0.7,0.3,0.9l2.6,1.5c-0.3,1.4-0.3,2.9,0,4.3l-2.6,1.5c-0.3,0.2-0.4,0.5-0.3,0.9c0.7,2.2,1.8,4.1,3.3,5.8
		c0.2,0.2,0.6,0.3,0.9,0.1l2.6-1.5c1.1,0.9,2.3,1.7,3.7,2.1v3c0,0.3,0.2,0.6,0.6,0.7c2.2,0.5,4.5,0.5,6.7,0c0.3-0.1,0.6-0.4,0.6-0.7
		v-3c1.4-0.5,2.6-1.2,3.7-2.1l2.6,1.5c0.3,0.2,0.7,0.1,0.9-0.1c1.5-1.6,2.7-3.6,3.3-5.8C91.2,71.2,91.1,70.8,90.8,70.6z M76.7,71.9
		c-2.7,0-4.9-2.2-4.9-4.9c0-2.7,2.2-4.9,4.9-4.9c2.7,0,4.9,2.2,4.9,4.9C81.5,69.7,79.3,71.9,76.7,71.9z"/>
</g>
</svg>
