<svg xmlns="http://www.w3.org/2000/svg" viewBox="0 0 60 60">
  <g id="ea937f1a-5ce6-419c-abed-e16fcc4eb439" data-name="Layer 1">
    <g>
      <path d="M50.09,47.31v-21a.72.72,0,0,0-.72-.72H40.79V18.49a.72.72,0,0,0-.72-.72H37.83V16.25c.22-1.44-.37-4.34-3.93-6.07l-.18-.08V9.19a.72.72,0,0,0-1.43,0v1.38a.72.72,0,0,0,.45.66c4.12,1.68,3.69,4.72,3.67,4.85s0,.09,0,.13V21l-.4-.12a1.43,1.43,0,0,1-1-1.36V17.42a.74.74,0,0,0-.74-.72.71.71,0,0,0-.72.71v4.48a.73.73,0,0,1-.73.73A.77.77,0,0,1,32,22a.71.71,0,0,0-.71-.72.72.72,0,0,0-.72.72v.8l0,.05a.68.68,0,0,1-.68.43.88.88,0,0,1-.62-.32l-.06-.08v-.79a.72.72,0,1,0-1.43,0,.68.68,0,0,1-.68.68.69.69,0,0,1-.69-.68v-.35a.71.71,0,0,0-.71-.72.73.73,0,0,0-.72.71v.22l-.21.06a1.39,1.39,0,0,1-.46.06.69.69,0,0,1-.69-.72l-.07-1.43V14.22a3,3,0,0,1,1.23-2.44.72.72,0,0,0,.29-.57v-2a.72.72,0,0,0-1.44,0v1.68l-.09.09a4.39,4.39,0,0,0-1.42,3.26v3.55h-2.2a.72.72,0,0,0-.72.72v7.15H10.62a.71.71,0,0,0-.71.71V50.81a.71.71,0,0,0,.71.71H45.89A4.12,4.12,0,0,0,49,50.33,4.29,4.29,0,0,0,50.09,47.31ZM20.64,19.2h1.49V20l.07,1.43a2.13,2.13,0,0,0,2.12,2.09,3,3,0,0,0,.88-.12l.19-.06.13.16a2.14,2.14,0,0,0,1.6.72A2.12,2.12,0,0,0,28,24l.2-.1.16.16a2.21,2.21,0,0,0,1.53.65A2.26,2.26,0,0,0,31.57,24l.15-.17.21.08a2.13,2.13,0,0,0,.85.18,2.16,2.16,0,0,0,2.11-1.7L35,22l.35.15a2.85,2.85,0,0,0,1.08.21h.72a.72.72,0,0,0,.72-.67.86.86,0,0,0,0-.15V19.2h1.52v6.43H20.64ZM31,27.07v6.69H29V27.07Zm-19.69,0h16.2v6.72l-.19.09a1.41,1.41,0,0,0-.86,1.3v2.43H16.08c-2.29,0-4.74-1.51-4.74-5.73Zm16.2,23H11.34V36.81l.53.54A5.79,5.79,0,0,0,16.08,39H26.49V41a1.41,1.41,0,0,0,.86,1.3l.19.09Zm3.49,0H29V42.4H31Zm1-9.12H27.92V35.19h4.16Zm.38-13.9h16.2v4.77c0,4.25-2.47,5.76-4.77,5.76H33.51V35.18a1.41,1.41,0,0,0-.86-1.3l-.19-.09ZM48,49.35a2.77,2.77,0,0,1-2.09.74H32.46V42.37l.19-.09a1.41,1.41,0,0,0,.86-1.3V39H43.89a5.8,5.8,0,0,0,4.23-1.71l.54-.55v10.6A3,3,0,0,1,48,49.35Z"/>
      <path d="M24.08,45.84H15.75V41.69a.72.72,0,1,0-1.43,0v4.87a.71.71,0,0,0,.72.71h9a.72.72,0,0,0,0-1.43Z"/>
    </g>
  </g>
</svg>
