<svg xmlns="http://www.w3.org/2000/svg" viewBox="0 0 60 60">
  <g id="b8575652-fb34-4a10-8d72-521ae492b33b" data-name="Layer 1">
    <path d="M43.74,50.87a7.13,7.13,0,0,1-7.12-7.13,7,7,0,0,1,.25-1.84l.11-.4L22.11,34.06l-.26.33a7.13,7.13,0,1,1,0-8.78l.26.33L37,18.5l-.11-.4a7,7,0,0,1-.25-1.84,7.15,7.15,0,1,1,1.53,4.39l-.26-.33L23,27.76l.11.4a6.9,6.9,0,0,1,0,3.68l-.11.4,14.87,7.44.26-.32a7.12,7.12,0,1,1,5.59,11.51Zm0-12.22a5.09,5.09,0,1,0,5.09,5.09A5.1,5.1,0,0,0,43.74,38.65ZM16.26,24.91A5.09,5.09,0,1,0,21.35,30,5.09,5.09,0,0,0,16.26,24.91ZM43.74,11.17a5.09,5.09,0,1,0,5.09,5.09A5.1,5.1,0,0,0,43.74,11.17Z"/>
  </g>
</svg>
