<svg xmlns="http://www.w3.org/2000/svg" viewBox="0 0 60 60">
  <g id="b24c7209-36df-4441-ab5d-6422ee091ca4" data-name="Layer 1">
    <g>
      <path d="M34.17,43.63V30.57a13.34,13.34,0,0,0-9.74-12.83l3-6a.85.85,0,0,0-.29-1.07l-.83-.55A4.28,4.28,0,0,0,22,9.88a2.61,2.61,0,0,1-2.34,0,4.3,4.3,0,0,0-4.3.27l-.83.55a.84.84,0,0,0-.28,1.07l3,6A13.34,13.34,0,0,0,7.5,30.57V43.63l-2,2.61A2.7,2.7,0,0,0,7.7,50.57H34a2.71,2.71,0,0,0,2.17-4.33ZM16.07,11.68l.22-.15a2.63,2.63,0,0,1,2.63-.16,4.3,4.3,0,0,0,3.83,0,2.61,2.61,0,0,1,2.62.16l.22.15-2.85,5.7a15.21,15.21,0,0,0-1.91-.15,15.21,15.21,0,0,0-1.91.15Zm18.51,37a1.07,1.07,0,0,1-.62.2H7.7a1,1,0,0,1-1-1,1,1,0,0,1,.21-.62L9,44.4a.88.88,0,0,0,.16-.5V30.57a11.67,11.67,0,0,1,23.34,0V43.9a.82.82,0,0,0,.17.5l2.12,2.84A1,1,0,0,1,34.58,48.7Z"/>
      <path d="M54.17,35.57a.84.84,0,0,0,.84-.84v-5a.84.84,0,0,0-.84-.83h-2.5V24.73a.83.83,0,0,0-.83-.83h-2a7.5,7.5,0,1,0-10.54-1.14,7.23,7.23,0,0,0,1.14,1.14h-2a.83.83,0,0,0-.83.83v5a.84.84,0,0,0,.83.84H40V33.9H37.5a.83.83,0,0,0-.83.83v5a.83.83,0,0,0,.83.83H40v9.17a.84.84,0,0,0,.84.83H54.17a.84.84,0,0,0,.84-.83v-10a.85.85,0,0,0-.84-.84h-2.5V35.57ZM38.34,18.06a5.83,5.83,0,1,1,5.83,5.84A5.83,5.83,0,0,1,38.34,18.06Zm0,10.84V25.57H50V28.9H48.34V27.23H46.67V28.9H45V27.23H43.34V28.9H41.67V27.23H40V28.9ZM40,37.24V38.9H38.34V35.57H50V38.9H48.34V37.24H46.67V38.9H45V37.24H43.34V38.9H41.67V37.24ZM53.34,48.9H51.67V47.24H50V48.9H48.34V47.24H46.67V48.9H45V47.24H43.34V48.9H41.67V45.57H53.34Zm0-8.33V43.9H51.67V42.24H50V43.9H48.34V42.24H46.67V43.9H45V42.24H43.34V43.9H41.67V40.57ZM50,32.23V33.9H48.34V32.23H46.67V33.9H45V32.23H43.34V33.9H41.67V30.57H53.34V33.9H51.67V32.23Z"/>
      <path d="M44.17,15.56V13.9A4.17,4.17,0,0,0,40,18.06h1.67A2.5,2.5,0,0,1,44.17,15.56Z"/>
      <path d="M44.17,22.23a4.17,4.17,0,0,0,4.17-4.17H46.67a2.49,2.49,0,0,1-2.5,2.5Z"/>
    </g>
  </g>
</svg>
