<svg xmlns="http://www.w3.org/2000/svg" viewBox="0 0 60 60">
  <g id="bbaddbcc-6402-4653-bb1c-a5ff0c48736f" data-name="Layer 1">
    <g>
      <path d="M17.5,24.89A1.12,1.12,0,0,0,18.62,26H41a1.12,1.12,0,0,0,0-2.24H18.62A1.12,1.12,0,0,0,17.5,24.89Z"/>
      <path d="M33.72,29.27H18.62a1.12,1.12,0,0,0,0,2.24h15.1a1.12,1.12,0,1,0,0-2.24Z"/>
      <path d="M18.62,20.32H36.06a2.85,2.85,0,0,1-2.67-2.24H18.62a1.12,1.12,0,0,0,0,2.24Z"/>
      <path d="M48.2,17.59a.94.94,0,0,0-.22-.73L36.84,5.79a1,1,0,0,0-.67-.28H14.47a3.22,3.22,0,0,0-2.63,3.75L12,39H48.2Zm-11-8.78L45,16.58H37.18ZM46.3,37.17H14V8.64A1.33,1.33,0,0,1,15.31,7.3l19.91,0V17.48a.94.94,0,0,0,1,.95H46.3Z"/>
      <path d="M12.27,49.79a.8.8,0,0,0,.79.79.79.79,0,0,0,.78-.79v-8.5H12.27Z"/>
      <path d="M18.62,15H33.5V12.78H18.62a1.12,1.12,0,0,0,0,2.24Z"/>
      <path d="M20.87,53.71a.78.78,0,0,0,1.56,0V41.29H20.87Z"/>
      <path d="M29.46,49.79a.79.79,0,0,0,.78.79.8.8,0,0,0,.79-.79v-8.5H29.46Z"/>
      <path d="M38.05,53.71a.79.79,0,0,0,1.57,0V41.29H38.05Z"/>
      <path d="M46.65,41.29v8.5a.78.78,0,1,0,1.56,0v-8.5Z"/>
    </g>
  </g>
</svg>
