<svg xmlns="http://www.w3.org/2000/svg" viewBox="0 0 60 60">
  <g id="b3cde482-662e-4f00-b86b-c540d9d0fe34" data-name="Layer 1">
    <path d="M26.54,53.87a.92.92,0,0,1,0-1.84h2.65v-2.8H29A23.85,23.85,0,0,1,6.4,25.41,24.19,24.19,0,0,1,13.91,8a.91.91,0,0,1,.64-.28.88.88,0,0,1,.64.28.86.86,0,0,1,0,1.28,22,22,0,0,0,15,38.08A21.82,21.82,0,0,0,45,41.62a.94.94,0,0,1,.65-.28.91.91,0,0,1,.64.28.88.88,0,0,1-.11,1.28,23.58,23.58,0,0,1-15,6.22H31V52h2.65a.92.92,0,1,1,0,1.84Zm3.35-8.42A19.66,19.66,0,1,1,49.6,25.73,19.63,19.63,0,0,1,29.89,45.45ZM25,37.12c1.2,3.94,3.09,6.38,4.91,6.38s3.7-2.44,4.91-6.38l.07-.24-.25,0a34.06,34.06,0,0,1-9.46,0l-.25,0ZM46.31,32.2a21.64,21.64,0,0,1-9.22,4.28l-.09,0,0,.09a18.55,18.55,0,0,1-2.89,6.21l-.29.37.46-.12A18.16,18.16,0,0,0,46.56,32.38Zm-33,.18A17.85,17.85,0,0,0,25.64,43.06l.46.12-.29-.37a18.55,18.55,0,0,1-2.89-6.21l0-.09-.09,0a21.17,21.17,0,0,1-9.22-4.28Zm16.57-16.2a43.17,43.17,0,0,0-5.42.43h-.11l0,.11a37.38,37.38,0,0,0-1,9,43.41,43.41,0,0,0,1,9l0,.11.12,0a43.47,43.47,0,0,0,5.42.43,29.8,29.8,0,0,0,5.43-.43l.1,0,0-.1a37.52,37.52,0,0,0,1-9,43.39,43.39,0,0,0-1-9l0-.12h-.11A43.17,43.17,0,0,0,29.89,16.18Zm7.62,1.16a51.06,51.06,0,0,1,.75,8.5,41.54,41.54,0,0,1-.75,8.39l-.06.26.26-.07c6.11-1.69,10-5.11,10-8.69s-3.94-6.88-10-8.58l-.25-.06Zm-15.33-.08c-6.11,1.58-10.06,4.95-10.06,8.58s4,6.89,10.06,8.58l.25.07-.05-.26a40.83,40.83,0,0,1-.75-8.39,40.9,40.9,0,0,1,.75-8.39l.05-.25ZM34,8.77A18.46,18.46,0,0,1,36.86,15l0,.09.09,0a21.18,21.18,0,0,1,9.22,4.29l.26-.19A17.9,17.9,0,0,0,34.14,8.51l-.46-.11Zm-8.33-.26A18,18,0,0,0,13.32,19.19l.26.19a21.48,21.48,0,0,1,9.22-4.29l.09,0,0-.09a18.46,18.46,0,0,1,2.89-6.21l.29-.37Zm4.25-.44c-1.72,0-3.6,2.45-4.91,6.38l-.08.25.26,0a35.12,35.12,0,0,1,9.46,0l.25,0-.07-.25C33.59,10.52,31.71,8.07,29.89,8.07Z"/>
  </g>
</svg>
