<svg xmlns="http://www.w3.org/2000/svg" viewBox="0 0 60 60">
  <g id="f145827a-6bbc-4c0c-bc9e-25f3725c42b8" data-name="Layer 1">
    <g>
      <path d="M49.42,43.87V7c0-1.85-.93-3.36-2.78-3.36H14.16A3.36,3.36,0,0,0,10.8,7v3.19L10.62,52.5a3.35,3.35,0,0,0,2.73,3.88H37a1.12,1.12,0,0,0,.7-.29L49.19,44.62A.91.91,0,0,0,49.42,43.87ZM38,53V44.91h8.05Zm9.44-10H37a1,1,0,0,0-1,1V54.46l-21.78.06a1.38,1.38,0,0,1-1.33-1.39V6.93a1.35,1.35,0,0,1,1.33-1.34H46.12A1.34,1.34,0,0,1,47.45,7Z"/>
      <path d="M41.93,33.81H17.61a1,1,0,0,0,0,2H41.93a1,1,0,0,0,0-2Z"/>
      <path d="M41.93,29H17.61a1,1,0,0,0,0,2H41.93a1,1,0,0,0,0-2Z"/>
      <path d="M41.93,39H17.61a1,1,0,0,0,0,2H41.93a1,1,0,0,0,0-2Z"/>
      <path d="M29.8,25.51a8.21,8.21,0,1,0-8.21-8.21A8.22,8.22,0,0,0,29.8,25.51Zm0-1.51a6.7,6.7,0,0,1-3.65-1.09,3.41,3.41,0,0,1,.16-.57,3.81,3.81,0,0,1,7.14-.09,3.31,3.31,0,0,1,.18.53A6.57,6.57,0,0,1,29.8,24Zm-1.88-7.44a2,2,0,1,1,2,2A2,2,0,0,1,27.92,16.56Zm1.88-6a6.7,6.7,0,0,1,4.72,11.45,5.08,5.08,0,0,0-.69-1.3l-.57-.65a4.8,4.8,0,0,0-1.63-1,3.06,3.06,0,1,0-3.45,0,5,5,0,0,0-1.65,1l-.56.64a5.15,5.15,0,0,0-.73,1.44A6.69,6.69,0,0,1,29.8,10.6Z"/>
    </g>
  </g>
</svg>
