<svg xmlns="http://www.w3.org/2000/svg" viewBox="0 0 60 60">
  <g id="a636777d-fbe9-41b3-8673-29e4b16f385a" data-name="Layer 1">
    <g>
      <path d="M47.68,23.69H32.35a.87.87,0,1,0,0,1.73H47.69a.87.87,0,1,0,0-1.73Z"/>
      <path d="M53,15.64a3.56,3.56,0,0,0-2.54-1.05H36.32V12.74a.87.87,0,0,0-.87-.87H24.57a.87.87,0,0,0-.87.87v1.85H9.6A3.59,3.59,0,0,0,6,18.17V44.55A3.59,3.59,0,0,0,9.6,48.13H50.4A3.59,3.59,0,0,0,54,44.55V18.17A3.59,3.59,0,0,0,53,15.64Zm-27.52-2h9.16v3.71H25.43ZM52.26,44.55a1.85,1.85,0,0,1-1.85,1.85H9.6a1.86,1.86,0,0,1-1.86-1.85V18.17A1.86,1.86,0,0,1,9.6,16.32H23.69v1.85a.87.87,0,0,0,.87.87H35.44a.87.87,0,0,0,.87-.87V16.32H50.4a1.85,1.85,0,0,1,1.85,1.85V44.05h0Z"/>
      <path d="M27.16,37.48v-2A7.52,7.52,0,0,0,25.66,31L24.83,30a7.22,7.22,0,0,0-2.43-1.54,4.53,4.53,0,1,0-5.11,0A7.24,7.24,0,0,0,14.85,30L14,31a7.52,7.52,0,0,0-1.49,4.53v4.33a.79.79,0,0,0,.52.74,20.41,20.41,0,0,0,6.79,1.13,20.11,20.11,0,0,0,6.79-1.13.77.77,0,0,0,.53-.74V38.67A6.81,6.81,0,0,1,27.16,37.48ZM16.91,24.75a2.94,2.94,0,1,1,2.93,2.94A2.94,2.94,0,0,1,16.91,24.75Zm8.67,14.47a18.92,18.92,0,0,1-11.47,0V35.5a5.84,5.84,0,0,1,5.73-5.92,5.84,5.84,0,0,1,5.74,5.92Z"/>
    </g>
  </g>
</svg>
