<svg xmlns="http://www.w3.org/2000/svg" viewBox="0 0 60 60">
  <g id="a3f93009-99d6-4c91-b903-ce8ccb8b9b93" data-name="Layer 1">
    <g>
      <path d="M50.94,11.2a3.64,3.64,0,0,0-2.59-1.08H40.17V6.88a.89.89,0,1,0-1.77,0v3.23H21.6V6.88A.88.88,0,0,0,20.72,6a.91.91,0,0,0-.89.89v3.23H11.66A3.67,3.67,0,0,0,8,13.79V50.34A3.66,3.66,0,0,0,11.66,54H48.34A3.66,3.66,0,0,0,52,50.34V13.78A3.62,3.62,0,0,0,50.94,11.2Zm-39.28.69h8.17v1.6a.89.89,0,1,0,1.77,0v-1.6H38.4v1.6a.89.89,0,1,0,1.77,0v-1.6h8.17a1.9,1.9,0,0,1,1.89,1.9v5.15H9.77V13.79A1.9,1.9,0,0,1,11.66,11.89ZM50.24,50.34a1.89,1.89,0,0,1-1.89,1.89H11.66a1.89,1.89,0,0,1-1.89-1.89V20.71H50.23V49.83h0Z"/>
      <path d="M42.82,46H41.61V39.51A3.54,3.54,0,0,0,38.07,36H33V33.6a1.67,1.67,0,0,0-1.67-1.66h-.65V30.58l.18-.08a2.83,2.83,0,0,0,1.73-2.65,5.4,5.4,0,0,0-1.74-3.28,1.26,1.26,0,0,0-1.8,0l-.16.22a5.31,5.31,0,0,0-1.6,3.13A2.83,2.83,0,0,0,29,30.55l.19.08V32h-.6a1.67,1.67,0,0,0-1.67,1.66V36h-5a3.54,3.54,0,0,0-3.54,3.53V46H17.13a.7.7,0,0,0-.7.7.7.7,0,0,0,.7.71H42.87a.7.7,0,0,0,.7-.68A.79.79,0,0,0,42.82,46ZM28.74,27.8a3.48,3.48,0,0,1,1-1.85l.24-.3.24.3a3.53,3.53,0,0,1,1,1.85,1.22,1.22,0,1,1-2.42,0Zm-.41,5.56,3.13-.06V36H28.33ZM40.09,45.82H19.76V42.59H20l1-.7a.87.87,0,0,1,.51-.17.84.84,0,0,1,.5.17l.95.7a2.38,2.38,0,0,0,1.35.4,2.09,2.09,0,0,0,1.34-.45l1-.7a.86.86,0,0,1,1,0l1,.71A2.26,2.26,0,0,0,30,43a2.21,2.21,0,0,0,1.33-.44l1-.7a.86.86,0,0,1,1,0l1,.71a2.26,2.26,0,0,0,2.68,0l1-.7a.86.86,0,0,1,1,0l.93.66h.26Zm0-4.81-.46-.28a2.43,2.43,0,0,0-1.27-.37,2.22,2.22,0,0,0-1.27.4l-1,.71a.89.89,0,0,1-.51.17.82.82,0,0,1-.5-.17l-1-.71a2.27,2.27,0,0,0-1.33-.43,2.3,2.3,0,0,0-1.34.43l-1,.71a.84.84,0,0,1-1,0l-1-.71a2.3,2.3,0,0,0-1.34-.43,2.26,2.26,0,0,0-1.34.44l-1,.7a.87.87,0,0,1-.51.17.84.84,0,0,1-.5-.17l-1-.71a2.25,2.25,0,0,0-1.3-.4,2.47,2.47,0,0,0-1.29.37l-.46.28v-1.5a2.07,2.07,0,0,1,2.12-2.07H38a2.12,2.12,0,0,1,2.12,2.12Z"/>
    </g>
  </g>
</svg>
