<?xml version="1.0" encoding="utf-8"?>
<!-- Generator: Adobe Illustrator 24.0.1, SVG Export Plug-In . SVG Version: 6.00 Build 0)  -->
<svg version="1.1" id="Ebene_1" xmlns="http://www.w3.org/2000/svg" xmlns:xlink="http://www.w3.org/1999/xlink" x="0px" y="0px"
	 viewBox="0 0 60 60" style="enable-background:new 0 0 60 60;" xml:space="preserve">
<g>
	<path d="M48.4,29.1H30.1c-0.6,0-1-0.4-1-1s0.4-1,1-1h18.2c0.6,0,1,0.4,1,1S48.9,29.1,48.4,29.1z"/>
	<path d="M48.4,34.3H30.1c-0.6,0-1-0.4-1-1s0.4-1,1-1h18.2c0.6,0,1,0.4,1,1S48.9,34.3,48.4,34.3z"/>
	<path d="M48.4,39.5H30.1c-0.6,0-1-0.4-1-1s0.4-1,1-1h18.2c0.6,0,1,0.4,1,1S48.9,39.5,48.4,39.5z"/>
</g>
<path d="M34,21.2h-8c-0.6,0-1-0.4-1-1V7.7c0-0.6,0.4-1,1-1h8c0.6,0,1,0.4,1,1v12.4C35,20.7,34.5,21.2,34,21.2z M27,19.2h6V8.7h-6
	V19.2z"/>
<g>
	<path d="M51.3,51.3H8.7c-2.8,0-5.1-2.4-5.1-5.4V18.7c0-3,2.3-5.4,5.1-5.4h13.1c0.6,0,1,0.4,1,1s-0.4,1-1,1H8.7
		c-1.7,0-3.1,1.5-3.1,3.4v27.2c0,1.9,1.4,3.4,3.1,3.4h42.5c1.7,0,3.1-1.5,3.1-3.4V18.7c0-1.9-1.4-3.4-3.1-3.4H38.1c-0.6,0-1-0.4-1-1
		s0.4-1,1-1h13.1c2.8,0,5.1,2.4,5.1,5.4v27.2C56.3,48.9,54.1,51.3,51.3,51.3z"/>
</g>
<g>
	<g id="f145827a-6bbc-4c0c-bc9e-25f3725c42b8_1_">
		<g>
			<path d="M17,41.7c-1.8,0-3.7-0.3-5.5-0.9c-0.4-0.1-0.8-0.5-0.8-1v-3.4c-0.2-3.4,2.5-6.4,6-6.5c3.5-0.2,6.4,2.5,6.6,6
				c0,0.1,0,0.2,0,0.3v3.7c0,0.4-0.3,0.8-0.7,1l-0.1,0C20.7,41.4,18.8,41.7,17,41.7z M22.3,39.9L22.3,39.9L22.3,39.9z M12.7,39.1
				c2.9,0.8,5.8,0.8,8.5,0l0-3.2c-0.1-2.4-2.1-4.2-4.5-4.1c-2.4,0.1-4.2,2.1-4.1,4.5L12.7,39.1z"/>
		</g>
		<path d="M17,31.8c-2.2,0-3.9-1.8-3.9-3.9S14.8,24,17,24c2.2,0,3.9,1.8,3.9,3.9S19.1,31.8,17,31.8z M17,26c-1.1,0-1.9,0.9-1.9,1.9
			s0.9,1.9,1.9,1.9s1.9-0.9,1.9-1.9S18,26,17,26z"/>
	</g>
</g>
</svg>
