<svg xmlns="http://www.w3.org/2000/svg" viewBox="0 0 60 60">
  <g id="bb7294d4-b779-4e6a-a653-5a1b0113917f" data-name="Layer 1">
    <path d="M30,53.91a4.3,4.3,0,0,1-3.62-2C21.3,44.14,12.78,30,12.78,23.3a17.22,17.22,0,0,1,34.44,0c0,6.7-8.52,20.83-13.6,28.65a4.29,4.29,0,0,1-3.61,2Zm0-46A15.47,15.47,0,0,0,14.57,23.3C14.57,30,24.77,46.19,27.89,51A2.54,2.54,0,0,0,30,52.13a2.47,2.47,0,0,0,1.37-.41,2.55,2.55,0,0,0,.75-.75c3.12-4.77,13.32-20.9,13.32-27.67A15.47,15.47,0,0,0,30,7.87Zm0,23a7.71,7.71,0,1,1,7.71-7.71A7.72,7.72,0,0,1,30,30.83ZM30,17.2a5.91,5.91,0,1,0,5.9,5.9A5.9,5.9,0,0,0,30,17.2Z"/>
  </g>
</svg>
