<svg xmlns="http://www.w3.org/2000/svg" viewBox="0 0 60 60">
  <g id="e09b47df-8940-4cbd-b3ed-327d980181f5" data-name="Layer 1">
    <path d="M54.47,6.72A1.68,1.68,0,0,0,52.8,5H39.27a1.69,1.69,0,0,0,0,3.37h9.48L37.16,20.09a18.95,18.95,0,0,0-21.9-.65,23.76,23.76,0,0,0-2.42,1.87A19.48,19.48,0,0,0,13,50.05l.12.1h0l.2.18a11.25,11.25,0,0,0,1.88,1.45h0A18.67,18.67,0,0,0,25.75,55,19.37,19.37,0,0,0,39.67,22.33L51.12,10.79l0,9.59,0,.49.11.38h.13a1.67,1.67,0,0,0,3.1-.9l0-.45ZM34.61,48.85a15.62,15.62,0,0,1-8.86,2.75,15.28,15.28,0,0,1-7.92-2.2c-2.29-1.56-5.59-5-6.59-7.38-.13-.27-.23-.56-.34-.83l-.15-.42a16.2,16.2,0,0,1-.89-5.27A15.91,15.91,0,1,1,34.61,48.85Z"/>
  </g>
</svg>
