<svg xmlns="http://www.w3.org/2000/svg" viewBox="0 0 60 60">
  <g id="afc67830-a4fc-4bf3-ac44-cc9cf8ca7577" data-name="Layer 1">
    <g>
      <path d="M46.89,22.28H42.22V19a12.23,12.23,0,0,0-12-12.47H30a12.29,12.29,0,0,0-12.21,12v3.78H13.11a1,1,0,0,0-1,1V52.48a1,1,0,0,0,1,1H46.89a1,1,0,0,0,1-1V23.26A1,1,0,0,0,46.89,22.28ZM19.74,19a10.25,10.25,0,0,1,10-10.49H30a10.33,10.33,0,0,1,10.25,10,3.68,3.68,0,0,1,0,.47v3.26H19.74ZM45.91,51.5H14.08V24.24H45.91Z"/>
      <path d="M28.56,39.87v5.91h2.82V39.87a4.24,4.24,0,1,0-2.82,0Z"/>
    </g>
  </g>
</svg>
