<svg xmlns="http://www.w3.org/2000/svg" viewBox="0 0 60 60">
  <g id="f8f4f64f-b457-4a80-9c20-145b9ea8c7fa" data-name="Layer 1">
    <path d="M52.45,10a.8.8,0,0,0-.8-.79H43.23a.79.79,0,1,0,0,1.58h6.5l-7.79,7.79a11.63,11.63,0,0,0-13.56-.5,11.69,11.69,0,1,0-7.23,21.41v5.87H16.49a.8.8,0,0,0,0,1.59h4.66v4.65a.79.79,0,1,0,1.58,0V46.93h4.66a.8.8,0,0,0,0-1.59H22.73V39.47a11.66,11.66,0,0,0,5.65-1.91,11.57,11.57,0,0,0,6.43,1.94A11.7,11.7,0,0,0,46.5,27.81a11.55,11.55,0,0,0-3.37-8.2l7.73-7.72V18.7h.06a.8.8,0,0,0,1.53-.3l0-.29ZM21.94,37.91A10.1,10.1,0,1,1,27,19.09a11.72,11.72,0,0,0,0,17.44A10,10,0,0,1,21.94,37.91Zm6.44-2.31a10.1,10.1,0,0,1,0-15.58,10.12,10.12,0,0,1,0,15.58Zm16.54-7.79a10.1,10.1,0,0,1-15.19,8.72,11.7,11.7,0,0,0,0-17.44,10.1,10.1,0,0,1,15.19,8.72Z"/>
  </g>
</svg>
