<svg xmlns="http://www.w3.org/2000/svg" viewBox="0 0 60 60">
  <g id="a2ffb492-3633-47ca-8d82-ca14cbbaa19b" data-name="Layer 1">
    <g>
      <path d="M19,12.11H12.56a8.73,8.73,0,0,0-8.73,8.72v6.41A8.72,8.72,0,0,0,12.56,36h4.19a78.9,78.9,0,0,1-2.14,10.41,1.24,1.24,0,0,0,1.15,1.52c1.69,0,3.07-1.1,4.38-2.53A25.92,25.92,0,0,0,23.81,40c2.22-4.14,3.88-8.92,3.88-12.36V20.83A8.73,8.73,0,0,0,19,12.11Zm6.34,15.58c0,2.62-1.52,7.37-3.61,11.3a24.49,24.49,0,0,1-3.34,4.92,4.12,4.12,0,0,1-.65.58l-.24.18-.27.23.08-.35A94.74,94.74,0,0,0,19.09,35a1.08,1.08,0,0,0-.27-.84,1.07,1.07,0,0,0-.79-.38H12.44A6.39,6.39,0,0,1,6,27.32V20.91a6.39,6.39,0,0,1,6.46-6.46h6.41a6.39,6.39,0,0,1,6.46,6.46Z"/>
      <path d="M47.44,12.11H41a8.73,8.73,0,0,0-8.72,8.72v6.41A8.72,8.72,0,0,0,41,36h4.2a79,79,0,0,1-2.15,10.41,1.25,1.25,0,0,0,1.16,1.52c1.68,0,3.07-1.1,4.38-2.53A26.72,26.72,0,0,0,52.29,40c2.21-4.14,3.88-8.92,3.88-12.36V20.83A8.73,8.73,0,0,0,47.44,12.11Zm6.34,15.58c0,2.62-1.52,7.37-3.61,11.3a24.49,24.49,0,0,1-3.33,4.92,5.24,5.24,0,0,1-.65.58l-.24.18-.28.23.09-.35c.73-3,1.29-6,1.8-9.55a1,1,0,0,0-.27-.84,1.06,1.06,0,0,0-.78-.38h-5.6a6.39,6.39,0,0,1-6.45-6.46V20.91a6.39,6.39,0,0,1,6.45-6.46h6.42a6.39,6.39,0,0,1,6.45,6.46Z"/>
    </g>
  </g>
</svg>
