<svg id="Ebene_1" data-name="Ebene 1" xmlns="http://www.w3.org/2000/svg" viewBox="0 0 42.55 42.55"><g id="f145827a-6bbc-4c0c-bc9e-25f3725c42b8"><path d="M16,45h-.12A1,1,0,0,1,15,43.83a14.85,14.85,0,0,1,2-5.78A15.12,15.12,0,0,1,45,43.7,1,1,0,0,1,43,44a13.12,13.12,0,0,0-24.34-4.9,12.93,12.93,0,0,0-1.68,5A1,1,0,0,1,16,45Z" transform="translate(-8.72 -8.01)"/><path d="M30,32.42a8.81,8.81,0,1,1,8.81-8.81A8.82,8.82,0,0,1,30,32.42ZM30,16.8a6.81,6.81,0,1,0,6.81,6.81A6.81,6.81,0,0,0,30,16.8Z" transform="translate(-8.72 -8.01)"/></g><path d="M30,50.56A21.28,21.28,0,1,1,51.28,29.28,21.15,21.15,0,0,1,30,50.56ZM30,10A19.29,19.29,0,0,0,10.72,29.28,19.3,19.3,0,0,0,30,48.56,19.28,19.28,0,1,0,30,10Z" transform="translate(-8.72 -8.01)"/></svg>
