<svg xmlns="http://www.w3.org/2000/svg" viewBox="0 0 60 60">
  <g id="ee81adbe-2af8-4e50-9e2e-3a0074b1115a" data-name="Layer 1">
    <g>
      <g>
        <path d="M35.2,22.56a1,1,0,0,1-.85-.44,1,1,0,0,1-.16-.77,1,1,0,0,1,.43-.65,2.39,2.39,0,0,0,1-1.55,2.41,2.41,0,0,0-1.93-2.84,2.32,2.32,0,0,0-.46,0,2.34,2.34,0,0,0-1.35.42,1.06,1.06,0,0,1-.58.17h0a1,1,0,0,1-.84-.44A1,1,0,0,1,30.75,15a4.4,4.4,0,0,1,2.5-.78,4.89,4.89,0,0,1,.85.08,4.47,4.47,0,0,1,1.67,8.09A1.06,1.06,0,0,1,35.2,22.56Z"/>
        <path d="M31.11,42.14a3.68,3.68,0,0,1-.66-.06,3.44,3.44,0,0,1-2.2-1.45l-5.57-8.21-.35.18a5.27,5.27,0,0,1-6.74-1.73l-.16-.24a5.26,5.26,0,0,1,1.4-7.32l3.49-2.37,5.9-12a5.43,5.43,0,0,1,.29-.59l0-.07a3.54,3.54,0,0,1,1-1,3.6,3.6,0,0,1,2.09-.61c3,0,7,3,10.19,7.65a22,22,0,0,1,3.56,8.09c.51,2.8,0,4.91-1.53,5.92a3.62,3.62,0,0,1-2.09.61H39.6l-10.46.83L34,36.76a3.45,3.45,0,0,1,.53,2.58,3.46,3.46,0,0,1-3.37,2.8ZM26.39,29.9l-2,1.38,5.57,8.2a1.39,1.39,0,0,0,.9.59,1.14,1.14,0,0,0,.26,0,1.41,1.41,0,0,0,.79-.24,1.44,1.44,0,0,0,.59-.89,1.38,1.38,0,0,0-.22-1.05l-5.48-8.06ZM18,25a3.2,3.2,0,0,0-1.36,2.07,3.23,3.23,0,0,0,.5,2.42l.16.23a3.24,3.24,0,0,0,4.48.86l2.88-2-3.79-5.57Zm4.32-3.45,4.26,6.28,8.61-.68-.87-.7a23.76,23.76,0,0,1-4.74-5.24,24,24,0,0,1-3.13-6.35l-.32-1.08ZM29.62,8.63a1.63,1.63,0,0,0-.94.25,1.7,1.7,0,0,0-.27.26l0,0L28,10v0c-.49,1.82.33,5.75,3.27,10.07,3,4.48,6.45,6.63,8.33,6.74l.69-.05,0,0a1.31,1.31,0,0,0,.37-.17c.78-.52,1-1.93.67-3.86a20.07,20.07,0,0,0-3.24-7.31C35,10.75,31.51,8.63,29.62,8.63Z"/>
        <path d="M40.56,9.21a1.05,1.05,0,0,1-.7-.37,1,1,0,0,1-.22-.75l.6-5.72a1,1,0,0,1,1-.92h.11a1,1,0,0,1,.92,1.12l-.6,5.71a1,1,0,0,1-1,.92Z"/>
        <path d="M44.57,12.79a1,1,0,0,1-1-1.23,1,1,0,0,1,.44-.65l5.43-3.57A1,1,0,0,1,50,7.17,1,1,0,0,1,50.55,9l-5.42,3.58A1,1,0,0,1,44.57,12.79Z"/>
        <path d="M52.16,19.06,52,19l-6.3-1.14a1,1,0,0,1,.17-2H46L52.34,17a1,1,0,0,1-.18,2Z"/>
      </g>
      <path d="M51.27,28.37s-3.3-1.7-4.65-2.23a.93.93,0,0,0-1.26.84v0c0,.52.36.81,1,1.09l4.47,2.54L34,47.46a.83.83,0,0,1-.21.16,6.85,6.85,0,0,1-8.45-.9L8.89,30.36s3-1.2,3.31-1.39.36-.78.22-1.19a1.06,1.06,0,0,0-1.1-.71L6.6,28.64c-.61.18-1.09.52-1.09,1.05v27a1.9,1.9,0,0,0,1.9,1.9H52.59a1.9,1.9,0,0,0,1.9-1.9V31.93C54.49,30.17,53.43,29.55,51.27,28.37Zm1.32,27a1.35,1.35,0,0,1-.48,1,3.33,3.33,0,0,1-1.17.29H8.6a1.28,1.28,0,0,1-.71-.29,1.47,1.47,0,0,1-.48-1V31.93a1.35,1.35,0,0,1,.06-.35L24.94,49.05a.83.83,0,0,0,.21.16,8.84,8.84,0,0,0,10.9-1.15L52.53,31.58a1,1,0,0,1,.06.35Z"/>
    </g>
  </g>
</svg>
