<svg xmlns="http://www.w3.org/2000/svg" viewBox="0 0 60 60">
  <g id="ed626ba5-1887-49b9-8f13-bf83fd0ed615" data-name="Layer 1">
    <g>
      <path d="M40.92,4H19.08a4.2,4.2,0,0,0-4.2,4.2V51.84a4.2,4.2,0,0,0,4.2,4.2H40.92a4.2,4.2,0,0,0,4.2-4.2V8.16A4.2,4.2,0,0,0,40.92,4Zm2.52,47.88a2.52,2.52,0,0,1-2.52,2.52H19.08a2.52,2.52,0,0,1-2.52-2.52V44.28H43.44Zm0-9.24H16.56V12.36H43.44Zm0-31.92H16.56V8.16a2.52,2.52,0,0,1,2.52-2.52H40.92a2.52,2.52,0,0,1,2.52,2.52Z"/>
      <path d="M30,51.84a2.52,2.52,0,1,0-2.52-2.52A2.52,2.52,0,0,0,30,51.84Zm0-3.36a.84.84,0,1,1-.84.84A.85.85,0,0,1,30,48.48Z"/>
    </g>
  </g>
</svg>
