<svg xmlns="http://www.w3.org/2000/svg" viewBox="0 0 60 60">
  <g id="b50db7f0-3064-4a64-ad5e-9337e8f21aab" data-name="Layer 1">
    <g>
      <path d="M21.54,45.31a2.16,2.16,0,1,0,2.15-2.15A2.16,2.16,0,0,0,21.54,45.31Zm2.87,0a.72.72,0,1,1-.72-.71A.72.72,0,0,1,24.41,45.31Z"/>
      <path d="M48.61,35.38H46V33.56a7.11,7.11,0,0,0-14.21-.3v2.12H29.13a.63.63,0,0,0-.62.63V52.85a.63.63,0,0,0,.62.63H48.61a.63.63,0,0,0,.63-.63V36A.63.63,0,0,0,48.61,35.38ZM33,33.56a5.85,5.85,0,1,1,11.7-.27v2.09H33ZM48,52.22H29.76V36.63H48Z"/>
      <path d="M38,45.58V49h1.63V45.58a2.45,2.45,0,1,0-1.63,0Z"/>
      <path d="M12.2,13.71h23V25.84a7.14,7.14,0,0,1,1.43-.58V10.11A3.59,3.59,0,0,0,33,6.52H14.35a3.59,3.59,0,0,0-3.59,3.59V47.47a3.59,3.59,0,0,0,3.59,3.59H27V49.62H14.35a2.15,2.15,0,0,1-2.15-2.15V41H27V39.57H12.2Zm0-3.6A2.15,2.15,0,0,1,14.35,8H33a2.16,2.16,0,0,1,2.16,2.15v2.16h-23Z"/>
      <path d="M35.19,30.61v3.32h1.43V29.5a5,5,0,0,0-1.32,1Z"/>
    </g>
  </g>
</svg>
