<svg xmlns="http://www.w3.org/2000/svg" viewBox="0 0 60 60">
  <g id="bb7cf085-cd57-4c27-8a76-9608b5f62051" data-name="Layer 1">
    <path d="M35.14,56.75H23V31H16.12V20.49H23v-.91c0-1.45,0-2.95,0-4.44a12.22,12.22,0,0,1,3.62-8.6,11.6,11.6,0,0,1,6.62-3.08,20.66,20.66,0,0,1,2.8-.19c1.49,0,3,0,4.48,0h3.2V13.7H41.23l-4,0a3.68,3.68,0,0,0-.61.1c-1,.22-1.38.63-1.41,1.63,0,1.34,0,2.7,0,4v1h8.73L42.62,30.93H35.14ZM24.82,54.91h8.49V29.09H41l.82-6.77H33.5l-.15-.83a1.23,1.23,0,0,1,0-.31V19.51c0-1.33,0-2.71,0-4.07a3.28,3.28,0,0,1,2.86-3.38,4.94,4.94,0,0,1,1-.13l4-.06h.7V5.09H40.53c-1.48,0-3,0-4.45,0a18.65,18.65,0,0,0-2.56.18,9.66,9.66,0,0,0-5.6,2.58,10.44,10.44,0,0,0-3.06,7.37c-.07,1.43-.06,2.91-.05,4.33,0,.48,0,1,0,1.42a1.38,1.38,0,0,1-.36,1,1.35,1.35,0,0,1-1,.35H18v6.8h6.86Z"/>
  </g>
</svg>
