<svg xmlns="http://www.w3.org/2000/svg" viewBox="0 0 60 60">
  <g id="a17e272d-0b96-4a09-853d-214c008e99b9" data-name="Layer 1">
    <g>
      <path d="M30.06,53.17l-6,0a39.87,39.87,0,0,1-6.35-.43A12.43,12.43,0,0,1,7.42,42.78a32,32,0,0,1-.54-6.72c0-5,0-10.08.07-14.36a18.05,18.05,0,0,1,1.13-6.63,12.18,12.18,0,0,1,8.25-7.4A20.72,20.72,0,0,1,21.66,7l6-.1,3.12,0h0l2.29,0c2.07,0,4.41.08,6.76.17A13.89,13.89,0,0,1,47.8,9.67a12.58,12.58,0,0,1,4.87,8,34.13,34.13,0,0,1,.45,6.3c0,5,0,10.07-.07,14.32a17.81,17.81,0,0,1-1,6.22,12.26,12.26,0,0,1-9.32,8.06,31,31,0,0,1-6.68.54h-.46Zm.71-44.75-3.09,0-6,.1a18.43,18.43,0,0,0-4.92.64,10.48,10.48,0,0,0-7.22,6.47,16.41,16.41,0,0,0-1,6C8.5,26,8.46,31,8.47,36.06A31.13,31.13,0,0,0,9,42.44a10.9,10.9,0,0,0,9,8.7,37.45,37.45,0,0,0,6.1.41c3.84,0,7.71,0,11.49,0h.47a29.78,29.78,0,0,0,6.33-.5A10.62,10.62,0,0,0,50.58,44a16.19,16.19,0,0,0,.88-5.69c0-4.24.08-9.26.07-14.3a33.13,33.13,0,0,0-.42-6,10.92,10.92,0,0,0-4.26-7.06,12.37,12.37,0,0,0-7.07-2.3c-2.33-.09-4.66-.14-6.71-.17Zm2.58,40.7c-3.84,0-7.64,0-11.22-.06a16.8,16.8,0,0,1-4.79-.59,8.18,8.18,0,0,1-6-7,41.79,41.79,0,0,1-.38-5.22l0-.53c0-1.34,0-2.69,0-4,0-.32,0-.64,0-1H10.8l.07-3.47c.05-2.25.1-4.5.17-6.75a11.16,11.16,0,0,1,1-4.46,8.32,8.32,0,0,1,6.47-4.8,33.67,33.67,0,0,1,6-.38h.2c4.55,0,9.19,0,13.18.06a17.62,17.62,0,0,1,4.48.5,8.21,8.21,0,0,1,6.37,7.08,38.39,38.39,0,0,1,.39,5.62c0,4.26,0,8.59,0,12.77v.95a17.22,17.22,0,0,1-.51,4.48,8.36,8.36,0,0,1-7,6.37,32.71,32.71,0,0,1-5.9.37H33.35ZM12.42,29.21h.06V30c0,.58,0,1.17,0,1.75,0,1.29,0,2.63,0,3.94v.53a42.08,42.08,0,0,0,.36,5A6.6,6.6,0,0,0,17.8,47a15.52,15.52,0,0,0,4.34.52c4.18,0,8.67.07,13.16.06h.29a30.93,30.93,0,0,0,5.61-.35A6.78,6.78,0,0,0,47,42a15.86,15.86,0,0,0,.45-4.07v-1c0-4.18.07-8.5,0-12.74a36,36,0,0,0-.37-5.39A6.65,6.65,0,0,0,41.91,13a16.77,16.77,0,0,0-4.07-.44c-4,0-8.63-.07-13.17-.06h-.19a32.88,32.88,0,0,0-5.7.35,6.75,6.75,0,0,0-5.32,3.91,9.68,9.68,0,0,0-.83,3.83c-.07,2.25-.12,4.5-.17,6.75Z"/>
      <path d="M30,42.3H30a12.3,12.3,0,0,1-8.73-3.67A12.1,12.1,0,0,1,17.72,30a12.32,12.32,0,0,1,3.7-8.75,12.07,12.07,0,0,1,8.63-3.5,12.28,12.28,0,0,1,8.58,21A12.13,12.13,0,0,1,30,42.3ZM30,40.71H30a10.56,10.56,0,0,0,7.47-3.09A10.68,10.68,0,0,0,30,19.33a10.52,10.52,0,0,0-7.49,3.05A10.71,10.71,0,0,0,19.31,30a10.51,10.51,0,0,0,3.07,7.51A10.69,10.69,0,0,0,30,40.71Zm0-2.45a8.24,8.24,0,1,1,0-16.48h0a8.24,8.24,0,1,1,0,16.48Zm0-14.89h0A6.66,6.66,0,0,0,23.35,30,6.64,6.64,0,0,0,30,36.67h0A6.66,6.66,0,0,0,36.65,30,6.64,6.64,0,0,0,30,23.37Z"/>
      <path d="M41.93,21.57a3.48,3.48,0,0,1,0-7h0a3.48,3.48,0,0,1,3.43,3.5h0a3.49,3.49,0,0,1-3.47,3.46Zm0-5.37a1.87,1.87,0,0,0-1.34,3.21,1.84,1.84,0,0,0,1.33.57h0a1.89,1.89,0,0,0,0-3.78Z"/>
    </g>
  </g>
</svg>
