<svg xmlns="http://www.w3.org/2000/svg" viewBox="0 0 60 60">
  <g id="e0e38472-16db-40bb-b200-004393722b8e" data-name="Layer 1">
    <path d="M33.54,53.5c-1.94,0-3.89,0-5.83-.07a15.08,15.08,0,0,1-9.41-3.65,15.37,15.37,0,0,1-5.38-9.58,18.51,18.51,0,0,1-.26-3.15c0-2.87,0-5.78,0-8.6V25.23c0-1.22,0-2.44,0-3.66,0-2.8,0-5.7,0-8.55A6.4,6.4,0,0,1,22.72,7.66a6.33,6.33,0,0,1,2.57,4.13A7.2,7.2,0,0,1,25.38,13c0,2.49,0,5,0,7.46h.89l2.75,0,8.39.07,2.85.05,1.15,0a6.42,6.42,0,0,1,5.86,5.15,6.35,6.35,0,0,1-4.91,7.43,5.72,5.72,0,0,1-1.28.15l-11.65-.08c-1.29,0-2.65,0-4-.08,0,.52,0,1,0,1.51,0,.8,0,1.62,0,2.43a3.77,3.77,0,0,0,.87,2.66,2.82,2.82,0,0,0,2.17.92H40.26a6.42,6.42,0,0,1,6.39,5.1,6.25,6.25,0,0,1-1.26,5.27,6.08,6.08,0,0,1-4.68,2.36h-.53C38,53.48,35.77,53.5,33.54,53.5ZM14.26,24.43h0v4c0,2.82,0,5.73,0,8.59a19,19,0,0,0,.24,2.9,13.77,13.77,0,0,0,4.82,8.6,13.53,13.53,0,0,0,8.42,3.28c4.13.11,8.34.06,12.41,0h.53a4.49,4.49,0,0,0,3.44-1.74,4.69,4.69,0,0,0,.95-3.92,4.8,4.8,0,0,0-4.83-3.84H28.44a4.42,4.42,0,0,1-3.34-1.43,5.39,5.39,0,0,1-1.31-3.72c0-.83,0-1.67,0-2.48,0-.6,0-1.21,0-1.81a1.29,1.29,0,0,1,.34-1,1.34,1.34,0,0,1,1-.33c1.5,0,3,.07,4.34.08q5.82.06,11.64.08a3.44,3.44,0,0,0,.92-.11,4.75,4.75,0,0,0-.62-9.39l-1.15,0-2.83-.05L29,22.08l-2.75,0c-.39,0-.75,0-1.1,0a1.32,1.32,0,0,1-1-.31,1.38,1.38,0,0,1-.37-1.05q0-3.86,0-7.73a5.26,5.26,0,0,0-.07-.93,4.74,4.74,0,0,0-5.59-3.86A4.79,4.79,0,0,0,14.24,13c0,2.87,0,5.78,0,8.59Z"/>
  </g>
</svg>
