<svg xmlns="http://www.w3.org/2000/svg" viewBox="0 0 60 60">
  <g id="a2fd9005-a6d7-42c4-976d-8f816967b27e" data-name="Layer 1">
    <path d="M52.52,51.56H41.71V35.79c0-3.73-1.35-5.61-4-5.61a4.4,4.4,0,0,0-4.1,3,5.65,5.65,0,0,0-.26,2V51.56H22.53v-.75c0-.25.13-25.46,0-28l0-.77H33.35v2.53A9.84,9.84,0,0,1,41,21.33a10.82,10.82,0,0,1,8.23,3.32c2.16,2.35,3.26,5.74,3.26,10.06Zm-9.33-1.48H51V34.71c0-3.94-1-7-2.87-9.06A9.41,9.41,0,0,0,41,22.81a8.57,8.57,0,0,0-7.8,4.3l-1.36,2.1V23.47H24c.08,4.48,0,22.62,0,26.61h7.85V35.13a6.82,6.82,0,0,1,.37-2.56,5.82,5.82,0,0,1,5.47-3.87c2,0,5.48.92,5.48,7.09ZM18.85,51.56H8V22H18.85ZM9.51,50.08h7.86V23.47H9.51Zm3.93-30.45h-.06A5.56,5.56,0,0,1,7.48,14c0-3.24,2.53-5.6,6-5.6a5.61,5.61,0,0,1,6,5.58C19.46,17.28,16.93,19.63,13.44,19.63Zm.06-9.71C10.83,9.92,9,11.62,9,14a4.08,4.08,0,0,0,4.42,4.11h.06C16.12,18.15,18,16.46,18,14S16.17,9.92,13.5,9.92Z"/>
  </g>
</svg>
