<svg xmlns="http://www.w3.org/2000/svg" xmlns:xlink="http://www.w3.org/1999/xlink" width="20" height="20" viewBox="0 0 20 20">
  <defs>
    <path id="a" d="M17.368 6.032A2.632 2.632 0 0 1 20 8.664v5.79a2.632 2.632 0 0 1-2.105 2.578v1.369c0 .945-.71 1.314-1.448.658l-2.138-1.974h-3.783a2.632 2.632 0 0 1-2.631-2.632v-.263H6.16l-2.83 2.52a1.053 1.053 0 0 1-1.752-.786V13.97A2.632 2.632 0 0 1 0 11.56V3.4A2.632 2.632 0 0 1 2.632.769h9.736A2.632 2.632 0 0 1 15 3.401v2.631h2.368zm-11.873 6.58h6.61c.727 0 1.316-.59 1.316-1.316V3.664c0-.727-.589-1.316-1.316-1.316h-9.21c-.727 0-1.316.59-1.316 1.316v7.632c0 .726.589 1.315 1.316 1.315h.263v2.106l2.337-2.106zm.982-3.893c0-.333.045-.62.135-.86.09-.24.198-.435.325-.585a5.15 5.15 0 0 1 .48-.485c.187-.173.322-.318.405-.435a.679.679 0 0 0 .125-.405c0-.28-.083-.463-.25-.55-.167-.086-.387-.13-.66-.13a2.61 2.61 0 0 0-.79.13c-.273.087-.51.21-.71.37V4.49a2.61 2.61 0 0 1 .76-.335 3.46 3.46 0 0 1 .96-.135c.72 0 1.245.187 1.575.56.33.374.495.834.495 1.38 0 .327-.063.59-.19.79-.127.2-.317.417-.57.65-.24.227-.42.434-.54.62-.12.187-.18.43-.18.73v.1h-1.37v-.13zm-.09.77h1.55v1.28h-1.55V9.49z"/>
  </defs>
  <use fill-rule="evenodd" xlink:href="#a"/>
</svg>
