<?xml version="1.0" encoding="utf-8"?>
<!-- Generator: Adobe Illustrator 16.0.0, SVG Export Plug-In . SVG Version: 6.00 Build 0)  -->
<!DOCTYPE svg PUBLIC "-//W3C//DTD SVG 1.1//EN" "http://www.w3.org/Graphics/SVG/1.1/DTD/svg11.dtd">
<svg version="1.1" id="Layer_1" xmlns="http://www.w3.org/2000/svg" xmlns:xlink="http://www.w3.org/1999/xlink" x="0px" y="0px"
	 width="767px" height="593.607px" viewBox="-216 -167.17 767 593.607" enable-background="new -216 -167.17 767 593.607"
	 xml:space="preserve">
<g id="Group_1131" transform="translate(-20 -941.296)">
	<g id="Group_1037" transform="translate(-410.205 885.694)">
		<g id="Group_1036" transform="translate(573.452 121.816)" opacity="0.204">
			
				<linearGradient id="Union_1_1_" gradientUnits="userSpaceOnUse" x1="-572.8726" y1="462.2458" x2="-572.9825" y2="460.7317" gradientTransform="matrix(161.58 0 0 -154.057 92720.4141 71294.2344)">
				<stop  offset="0" style="stop-color:#FFFFFF"/>
				<stop  offset="1" style="stop-color:#1062A3"/>
			</linearGradient>
			<path id="Union_1" fill="url(#Union_1_1_)" d="M139.12,175.403l30.036,2.922l34.564,37.355l-47.248,55.355L139.12,175.403z
				 M-16.468,220.039L-31.3,185.695c10.315-8.256,23.136-12.747,36.348-12.736h22.632l31.696,47.077L-16.468,220.039z
				 M157.759,127.856l-47.201-24.895h105.632l-6.291,24.895H157.759z M282.353-33.744l46.25,20.658l10.211,39.249
				c-11.595-0.206-22.979,3.075-32.684,9.419L282.353-33.744z M51.848-8.887l-2.938-12.234h61.602l5.295,20.034l-14.813,25.551
				L51.848-8.887z M208.298-52.069c1.302-1.324,2.51-2.736,3.623-4.223l17.602-25.554l5.783,1.896l16.95,40.665l-20.806,5.04
				L208.298-52.069z"/>
		</g>
		
			<linearGradient id="Path_1238_1_" gradientUnits="userSpaceOnUse" x1="-0.6168" y1="584.8254" x2="-0.6077" y2="583.5743" gradientTransform="matrix(335.0131 0 0 -259.266 803.5682 151741.0781)">
			<stop  offset="0" style="stop-color:#FFFFFF"/>
			<stop  offset="1" style="stop-color:#E8ECEC"/>
		</linearGradient>
		<path id="Path_1238" fill="url(#Path_1238_1_)" d="M981.381-56.729L881.349-92.375l-0.361,2.253l32.717,11.684l-22.128,23.176
			l-21.578-30.923l-2.695,0.573l22.446,32.28l-4.995,5.228l-71.072-35.441l-0.996,2.078l70.342,35.16l-8.278,8.672l-230.943-74.068
			l-2.101,7.528l109.473,35.374l-6.324,27.943l-35.438-10.831l-4.623,26.004L617.38-54.141l-0.874,3.277
			c-0.347-5.932-1.146-11.829-2.39-17.638l70.006,15.973l0.376-29.692l-3.092-0.576l-0.415,26.916L613.48-71.251
			c-1.889-8.259-4.768-16.258-8.586-23.823l-8.194,2.17l0,0c8.168,17.208,11.675,36.262,10.166,55.252
			c-3.828,44.084-35.089,79.91-94.426,104.635c-77.689,32.377-155.239,67.483-210.365,125.705
			c-31.957,33.754-54.814,73.089-69.404,121.272c-14.122,46.666-20.387,101.472-18.245,168.199h13.817
			c-2.417-55.216,1.126-102.55,10.486-143.586h33.575l26.031,143.586h4.752l-26.433-143.586h76.489l-14.801,143.586h4.565
			l14.41-143.586h36.395l-0.117,143.586h9.091l-0.433-94.631l100.621-126.094l9.934,24.148
			c-31.61,25.174-51.387,69.454-49.124,122.547l3.161,74.033h15.154l-3.823-74.033c-0.935-16.494,0.746-33.033,4.981-49.006h59.909
			l50.623,123.039h4.851l-50.963-123.039h69.665l-3.634,1.414l49.038,121.631h4.759l-49.952-123.04h48.619l46.177,71.129
			l10.079,51.91h9.091l-8.932-44.782l153.794,8.499l10.593,36.28h15.151l-18.638-61.939l14.839,2.354l38.024,31.152l45.139,3.392
			v-5.471l-45.107-3.382l-29.882-24.388l74.989,11.881v-5.201l-22.759-3.596l-0.897-88.294l23.656,1.435v-4.742l-28.192-1.706
			l0.667,92.54l-25.641-4.03l-10.839-70.321l-32.91-49.936l67.216-13.284l29.695,7.634v-4.246l-20.386-5.23l20.386-4.033v-4.908
			l-49.287,9.715l-51.865-69.531c12.702-1.907,25.51-3.029,38.348-3.361l62.809,62.555v-4.792l-58.306-57.885
			c19.471-0.245,38.937,0.621,58.306,2.596v-8.048c-4.543-0.472-9.036-0.903-13.42-1.256c-7.141-0.57-14.083-0.979-20.872-1.264
			l-1.354-34.449h35.646v-12.752h-49.566l-14.573-57.316l64.135,28.648v-9.248l-24.396-55.078l24.396,8.001v-10.08l-36.44-11.851
			l-6.187-26.326l31.713,8.475L954.666-3.059l26.717,8.635v-9.021l-16.642-5.337l-5.633-53.442l22.272,7.954V-56.729z
			 M917.243-77.177l38.48,13.744l1.563,15.225l-54.152-14.14L917.243-77.177z M873.87-1.887l26.313,8.551l8.568,33.999
			l-75.947-24.711l3.061-12.759l37.393,10.14L873.87-1.887z M774.879,44.287L764.355,58.23
			c-11.959,15.844-31.688,24.738-55.327,24.738h-32.323l-1.034-51.31l49.113,9.509l-5.957-29.777L774.879,44.287z M718.1,7.788
			l-4.233-21.146l83.777,27.488l-21.053,27.89L718.1,7.788z M610.166,120.007l67.675,46.085l-20.83,40.047h-32.833L610.166,120.007z
			 M620.375,206.131h-35.309l-5.497-40.694l34.618,2.085L620.375,206.131z M681.263,168.41l35.429,24.127l3.136,13.597h-58.06
			L681.263,168.41z M715.542,187.552l-32.697-22.199l19.069-36.904L715.542,187.552z M696.475,89.743h14.203
			c5.331,0.002,10.652-0.45,15.909-1.355l17.107,23.984l-39.968,8.489L696.475,89.743z M713.265,161.7h81.039l13.002,44.436H723.63
			L713.265,161.7z M712.38,157.908l-7.787-33.385l41.473-8.833l30.115,42.219H712.38z M729.951,87.75
			c12.341-2.458,23.783-8.216,33.115-16.658l36.771,29.36l-52.762,11.207L729.951,87.75z M692.989,89.743l7.544,32.713
			l-21.104,40.57l-69.998-47.502l-4.193-25.768L692.989,89.743z M613.583,163.684l-65.477-3.932l-7.871-70.009h61.515
			L613.583,163.684z M544.408,159.53l-69.504-4.174l-7.772-30.093l74.298,7.101L544.408,159.53z M475.892,159.184l68.931,4.153
			l4.696,42.787H410.8l65.718-44.509L475.892,159.184z M548.537,163.559l27.323,1.644l5.411,40.921h-27.945L548.537,163.559z
			 M629.42,214.283l91.54,48.788H605.191l-46.828-48.788H629.42z M637.409,214.283h169.584l-13.975,48.788H729.22L637.409,214.283z
			 M811.493,214.283h28.309c-6.452,15.445-9.663,32.05-9.44,48.788h-32.698L811.493,214.283z M831.023,277.849
			c1.218,13.028,3.7,25.909,7.418,38.454l24.629,84.352L748.357,277.858L831.023,277.849z M843.019,206.124h-31.914l-13.12-44.436
			h64.422L868,178.013c-8.688,6.507-16.07,14.596-21.761,23.841c-1.038,1.679-2.013,3.397-2.952,5.146L843.019,206.124z
			 M780.207,157.908l-30.76-42.93l54.13-11.532l53.507,42.718l4.026,11.752L780.207,157.908z M807.38,102.627l32.427-6.906
			l15.419,44.999L807.38,102.627z M803.636,99.65l-38.438-30.596c1.919-1.953,3.706-4.031,5.347-6.224l34.563-46.271l8.531,2.794
			l24.967,72.871L803.636,99.65z M817.356,20.573l82.676,27.116l12.303,48.915L831.118,60.41L817.356,20.573z M849.517-37.035
			l22.08,7.135l-1.036,24.172l-21.643-7.021L849.517-37.035z M846.199-38.107l-0.662,24.271l-23.927-7.759l-1.041-24.779
			L846.199-38.107z M754.323-67.783l25.619,8.276l-3.312,28.375l-28.546-8.734L754.323-67.783z M747.526-37.351l32.089,9.849
			l3.523-30.963l34.149,11.037l1.066,27.512l52.083,16.929l-0.538,12.599l-36.88-9.971l-3.698,15.205L788.143,1.446l0.491-1.255
			l-44.53-22.261L747.526-37.351z M712.143-48.201l32.14,9.851l-3.911,17.292L779.83-1.286L708.02-24.65L712.143-48.201z
			 M710.426-14.488l10.232,51.798L638.05,21.352L655.199-32.6L710.426-14.488z M616.441-36.114c0.229-3.125,0.288-6.147,0.256-9.116
			l35.335,11.586l-17.426,54.335l-35.205-6.8C609.239-1.058,615.103-18.268,616.441-36.114z M594.7,20.607
			c1.011-1.342,1.919-2.716,2.859-4.078l74.707,14.464l0.458,26.875L567.701,47.537C577.865,39.807,586.945,30.751,594.7,20.607
			L594.7,20.607z M517.279,76.185c16.509-6.769,32.172-15.441,46.673-25.84l108.834,10.728l0.383,21.895H501.283
			c5.33-2.271,10.666-4.532,16.012-6.782H517.279z M485.586,89.753h51.156l4.274,38.97l-74.851-7.14l-5.356-20.72
			c8.205-3.788,16.467-7.492,24.785-11.11H485.586z M454.395,103.878l12.907,51.044l-95.208-5.727
			c26.291-17.097,53.799-32.242,82.305-45.317H454.395z M239.889,333.753c11.506-47.499,30.96-86.48,58.181-119.458h41.781
			l-26.319,119.458H239.889z M393.732,333.753h-75.987l25.992-119.458h50.095L393.732,333.753z M305.085,206.136
			c1.574-1.764,3.152-3.526,4.769-5.268c17.202-18.11,36.332-34.285,57.05-48.237l100.197,6.031l-70.549,47.469L305.085,206.136z
			 M402.236,380.146l-0.758-165.851h82.002l17.53,42.602L402.236,380.146z M487.567,214.295h65.637l46.648,48.787h-23.398
			c-21.762-0.023-42.947,6.986-60.397,19.985L487.567,214.295z M484.59,354.172c6.129-20.841,17.992-39.539,34.233-53.968
			l22.196,53.968H484.59z M545.503,354.172l-23.446-56.616c15.958-12.766,35.791-19.713,56.226-19.698h35.014l49.543,76.312
			L545.503,354.172z M617.873,277.861h64.742l27.468,141.369L617.873,277.861z M720.359,426.848l-29.745-148.99h52.682l55.03,59.131
			L720.359,426.848z M723.17,432.014l78.707-91.197l63.676,68.438l9.081,31.101L723.17,432.014z M913.139,352.245l10.478,69.196
			l-41.883-6.616l-29.647-98.513c-0.765-2.544-1.472-5.063-2.118-7.561l30.647-6.061L913.139,352.245z M848.834,303.985
			c-3.467-14.337-4.897-29.089-4.259-43.824l54.156,33.984L848.834,303.985z M928.258,288.324l-24.182,4.766l-59.204-37.039
			c0.848-10.947,3.367-21.699,7.469-31.886c8.009-2.347,16.155-4.21,24.392-5.579l-0.2,0.112L928.258,288.324z M934.078,172.126
			h7.681l1.253,34.298c-32.728-1.085-61.285,1.298-85.493,7.147c14.929-25.961,41.78-41.448,76.568-41.448L934.078,172.126z
			 M928.123,159.403c-22.104,0.159-41.512,5.787-57.144,16.465L832.397,64.151l80.859,36.114L928.123,159.403z M952.984,65.064
			l27.195,61.783l-63.864-28.459l-12.578-49.476L952.984,65.064z M941.222,51.235l-28.757-9.357l-9.442-37.071L873.995-4.61
			l0.961-24.198l51.556,16.658L941.222,51.235z M965.372,30.366l-27.315-7.287l-8-34.086l20.872,6.744L965.372,30.366z
			 M961.227-9.902l-82.705-26.525l22.74-23.918l56.303,14.736L961.227-9.902z"/>
	</g>
	<g id="Group_383" transform="translate(148 1109.284)">
		<path id="Path_940" fill="#1062A3" d="M68.347,122.448c-26.21,0-47.462-11.141-47.462-24.892
			c0-13.748,21.252-24.891,47.462-24.891c26.211,0,47.459,11.143,47.459,24.891C115.806,111.308,94.558,122.448,68.347,122.448
			 M40.646,49.502c-50.604,0-91.623,21.513-91.623,48.055c0,26.543,41.019,48.055,91.623,48.055
			c50.604,0,91.623-21.512,91.623-48.055C132.27,71.015,91.25,49.502,40.646,49.502"/>
		<path id="Path_954" fill="#1062A3" d="M40.495,161.569l-16.989-16.988h33.978L40.495,161.569z"/>
	</g>
</g>
</svg>
