<svg xmlns="http://www.w3.org/2000/svg" xmlns:xlink="http://www.w3.org/1999/xlink" width="612.921" height="474.359" viewBox="0 0 612.921 474.359">
  <defs>
    <linearGradient id="linear-gradient" x1="-0.446" y1="1" x2="1" y2="1" gradientUnits="objectBoundingBox">
      <stop offset="0" stop-color="#fff"/>
      <stop offset="1" stop-color="#1062a3"/>
    </linearGradient>
    <linearGradient id="linear-gradient-2" x1="0.033" y1="0.565" x2="0.983" y2="0.553" gradientUnits="objectBoundingBox">
      <stop offset="0" stop-color="#fff"/>
      <stop offset="1" stop-color="#e8ecec"/>
    </linearGradient>
  </defs>
  <g id="Group_1132" data-name="Group 1132" transform="translate(-626.816 -1095.641)">
    <g id="Group_1037" data-name="Group 1037" transform="translate(196.611 1040.039)">
      <g id="Group_1036" data-name="Group 1036" transform="translate(692.293 176.749)" opacity="0.204">
        <path id="Union_1" data-name="Union 1" d="M136.13,205.477l23.992,2.337L187.73,237.65l-37.746,44.216ZM11.847,241.132,0,213.7a46.4,46.4,0,0,1,29.032-10.172H47.111l25.318,37.6ZM151.011,167.5l-37.7-19.884h84.372L192.655,167.5ZM250.532,38.428l36.941,16.5,8.157,31.351c-10.1.075-18.967,2.646-26.107,7.523ZM66.418,58.275,64.066,48.5h49.206l4.231,16L105.67,84.917Zm124.955-34.5a32.835,32.835,0,0,0,2.9-3.374L208.331,0l4.622,1.514,13.535,32.48-16.619,4.027Z" stroke="rgba(0,0,0,0)" stroke-miterlimit="10" stroke-width="1" fill="url(#linear-gradient)" style="mix-blend-mode: multiply;isolation: isolate"/>
      </g>
      <path id="Path_1238" data-name="Path 1238" d="M1043.127,99.515l-79.9-28.478-.287,1.8L989.07,82.17,971.4,100.681l-17.237-24.7-2.153.458,17.922,25.783-3.989,4.177L909.176,78.089l-.795,1.66,56.186,28.086-6.614,6.926L773.488,55.6l-1.681,6.012,87.443,28.254L854.2,112.187l-28.305-8.661L822.2,124.3l-69.821-22.721-.7,2.616a93.731,93.731,0,0,0-1.91-14.088l55.917,12.761.3-23.717-2.47-.461-.332,21.5L749.266,87.911a83.522,83.522,0,0,0-6.857-19.021l-6.544,1.732,0,0a86.872,86.872,0,0,1,8.119,44.133c-3.057,35.213-28.027,63.829-75.423,83.579-62.055,25.86-124,53.9-168.029,100.407-25.524,26.959-43.782,58.38-55.429,96.865-11.279,37.274-16.281,81.047-14.572,134.35h11.036c-1.93-44.1.9-81.912,8.377-114.689h26.819l20.792,114.689h3.8L480.237,415.272h61.1L529.51,529.961h3.646l11.51-114.689h29.07l-.093,114.689H580.9l-.346-75.587L660.92,353.645l7.935,19.289c-25.242,20.108-41.046,55.477-39.239,97.892l2.524,59.135h12.1l-3.054-59.135a125.1,125.1,0,0,1,3.978-39.142h47.854l40.426,98.277h3.875l-40.707-98.277h55.644l-2.9,1.129,39.167,97.148h3.8l-39.9-98.277h38.835L828.148,488.5l8.056,41.463h7.262l-7.143-35.767,122.845,6.788,8.461,28.978h12.1l-14.89-49.474,11.854,1.879,30.376,24.876,36.053,2.709v-4.369l-36.03-2.7L983.229,483.4l59.9,9.493v-4.156l-18.179-2.87-.715-70.526,18.894,1.145V412.7l-22.519-1.36.533,73.925-20.478-3.235L992,425.866l-26.286-39.878,53.69-10.619,23.72,6.1v-3.389l-16.293-4.18,16.293-3.221v-3.92l-39.37,7.761-41.427-55.54a249.609,249.609,0,0,1,30.629-2.683l50.168,49.965V362.43L996.556,316.2a407.989,407.989,0,0,1,46.571,2.071v-6.431c-3.63-.376-7.217-.722-10.721-1.005-5.7-.456-11.249-.783-16.671-1.01l-1.082-27.515h28.474V272.121h-39.583L991.9,226.338l51.222,22.882v-7.387l-19.487-43.995,19.487,6.391v-8.048l-29.1-9.467-4.939-21.029,25.328,6.774-12.63-30.077,21.341,6.9v-7.2l-13.294-4.264-4.494-42.686,17.788,6.353ZM991.9,83.183l30.741,10.982,1.248,12.162-43.254-11.3Zm-34.646,60.138,21.021,6.833,6.843,27.155L924.458,157.57l2.447-10.192,29.869,8.1Zm-79.076,36.872-8.4,11.136c-9.552,12.655-25.312,19.762-44.192,19.762H799.767l-.828-40.984,39.23,7.595L833.4,153.912Zm-45.353-29.154-3.382-16.891L896.366,156.1l-16.821,22.288Zm-86.214,89.635,54.057,36.809-16.638,31.989H757.808Zm8.157,68.8h-28.2l-4.387-32.506,27.654,1.664ZM803.4,279.342l28.3,19.271,2.505,10.86H787.836Zm27.383,15.288L804.669,276.9,819.9,247.423Zm-15.229-78.118h11.352a74.512,74.512,0,0,0,12.707-1.082l13.665,19.159-31.926,6.781Zm13.408,57.475H893.7l10.386,35.486H837.246Zm-.706-3.027-6.221-26.667,33.13-7.057,24.054,33.724Zm14.037-56.04a55.622,55.622,0,0,0,26.45-13.305l29.371,23.45-42.144,8.953Zm-29.526,1.592L818.8,242.64l-16.856,32.405-55.91-37.952-3.349-20.582Zm-63.424,59.06-52.3-3.139-6.287-55.921H739.9Zm-55.258-3.317-55.517-3.333-6.21-24.046,59.346,5.678Zm-54.727-.276,55.059,3.317,3.751,34.177h-110.8l52.491-35.554Zm58.025,3.495,21.825,1.314,4.321,32.686H701.208Zm64.607,40.514,73.116,38.971H742.644l-37.4-38.971Zm6.381,0H903.831l-11.162,38.971H841.713Zm139.048,0h22.61c-4.971,11.438-7.519,24.582-7.54,38.971H896.384Zm15.6,50.774a160.779,160.779,0,0,0,5.925,30.715l19.674,67.377L857,366.761Zm9.58-57.288H907.119l-10.482-35.486H948.1l4.466,13.039a68.937,68.937,0,0,0-17.379,19.044c-.83,1.339-1.608,2.714-2.358,4.112Zm-50.17-38.513-24.564-34.3,43.238-9.21,42.738,34.121,3.216,9.388ZM904.137,226.8l25.9-5.517,12.317,35.942Zm-2.992-2.382-30.7-24.439a48.74,48.74,0,0,0,4.27-4.972l27.609-36.959,6.813,2.232,19.943,58.2Zm10.961-63.163,66.037,21.66,9.828,39.07L923.1,193.077Zm25.688-46.015,17.636,5.7-.827,19.308-17.281-5.605Zm-2.65-.856-.528,19.381-19.111-6.2-.82-19.794Zm-73.38-23.71,20.464,6.611-2.643,22.665-22.8-6.978Zm-5.429,24.308,25.632,7.861,2.814-24.734,27.28,8.815.848,21.975,41.6,13.523-.43,10.056-29.449-7.964-2.954,12.146-32.891-10.7.393-1L853.612,127.18Zm-28.261-8.668,25.672,7.873L850.62,128,882.139,143.8,824.78,125.137ZM826.7,133.248l8.173,41.374-65.981-12.747,13.7-43.095Zm-75.07-17.272c.187-2.5.229-4.911.206-7.281l28.224,9.257-13.92,43.392-28.121-5.432A84.089,84.089,0,0,0,751.631,115.976Zm-17.365,45.306c.806-1.073,1.533-2.169,2.283-3.259l59.673,11.554.374,21.466-83.889-8.252A114.107,114.107,0,0,0,734.266,161.282Zm-61.837,44.392a183.284,183.284,0,0,0,37.28-20.64L796.64,193.6l.306,17.487h-137.3Q666.033,208.363,672.428,205.674Zm-25.314,10.837h40.861l3.415,31.129-59.788-5.7-4.277-16.55Q637.149,220.85,647.114,216.511ZM622.2,227.795l10.3,40.762-76.047-4.568C576.919,250.4,599.165,238.615,622.2,227.795ZM450.859,411.408c9.19-37.941,24.73-69.077,46.466-95.421H530.7l-21.023,95.421Zm122.882,0H513.046l20.761-95.421h40.01ZM502.933,309.473c1.257-1.41,2.517-2.817,3.81-4.2a273.761,273.761,0,0,1,45.568-38.534l80.032,4.818-56.359,37.917Zm77.6,138.99-.605-132.475h65.5l14,34.039Zm68.159-132.475H701.12l37.262,38.971H719.691a80.6,80.6,0,0,0-48.244,15.963Zm-2.375,111.73c5.507-17.7,15.038-32.518,27.343-43.107l17.73,43.107Zm48.656,0L676.24,382.5a71.81,71.81,0,0,1,44.911-15.734h27.967l39.571,60.956Zm57.806-60.956h51.715l21.941,112.92Zm81.862,119-23.765-119h42.076l43.955,47.232Zm2.244,4.128,62.868-72.842,50.871,54.663,7.255,24.843Zm151.739-63.714,8.369,55.271-33.452-5.285-23.683-78.689q-.915-3.047-1.69-6.04l24.48-4.841Zm-51.362-38.551a125.593,125.593,0,0,1-3.4-35l43.257,27.143ZM1000.7,375.12l-19.315,3.808L934.1,349.342a86,86,0,0,1,5.965-25.467,166.443,166.443,0,0,1,19.483-4.458l-.159.089Zm4.648-92.814h6.135l1,27.4c-26.141-.867-48.952,1.036-68.29,5.708C956.116,294.676,977.564,282.306,1005.351,282.306Zm-4.765-10.164c-17.655.129-33.157,4.624-45.643,13.153L924.124,196.06l64.581,28.848Zm19.857-75.353,21.724,49.348-51-22.728-10.047-39.516Zm-9.4-11.045-22.97-7.473-7.542-29.612-23.187-7.52.769-19.329L999.3,135.118Zm19.291-16.669-21.82-5.82-6.392-27.225,16.669,5.386Zm-3.312-32.165-66.06-21.185,18.165-19.1,44.975,11.77Z" transform="translate(0 0)" fill="url(#linear-gradient-2)" style="mix-blend-mode: multiply;isolation: isolate"/>
    </g>
    <g id="Group_383" data-name="Group 383" transform="translate(41 677)">
      <path id="Path_940" data-name="Path 940" d="M99.875,61.05c-21.818,0-39.506-9.277-39.506-20.72S78.057,19.61,99.875,19.61s39.506,9.277,39.506,20.72S121.693,61.05,99.875,61.05M76.817.33C34.7.33.55,18.238.55,40.33s34.145,40,76.267,40,76.267-17.908,76.267-40S118.939.33,76.817.33" transform="translate(937.45 604.67)" fill="#1062a3"/>
      <path id="Path_954" data-name="Path 954" d="M0,0H20L0,20Z" transform="translate(1014.142 698.284) rotate(-135)" fill="#1062a3"/>
    </g>
  </g>
</svg>
