<svg version="1.1" id="Layer_1" xmlns="http://www.w3.org/2000/svg" xmlns:xlink="http://www.w3.org/1999/xlink" x="0px" y="0px" width="612.921" height="474.359" viewBox="0 0 612.921 474.359" style="enable-background:new 0 0 612.9 474.4;" xml:space="preserve">
<style type="text/css">
	.st0{opacity:0.204;}
	.st1{fill:url(#Union_1_1_);}
	.st2{fill:url(#Path_1238_1_);}
	.st3{fill:#1062A3;}
</style>
<g id="Group_1132" transform="translate(-626.816 -1095.641)">
	<g id="Group_1037" transform="translate(196.611 1040.039)">
		<g id="Group_1036" transform="translate(692.293 176.749)" class="st0">
			
				<linearGradient id="Union_1_1_" gradientUnits="userSpaceOnUse" x1="-753.8664" y1="914.3592" x2="-752.4204" y2="914.3592" gradientTransform="matrix(295.63 0 0 -281.866 222733.6875 257867.7031)">
				<stop  offset="0" style="stop-color:#FFFFFF"/>
				<stop  offset="1" style="stop-color:#1062A3"/>
			</linearGradient>
			<path id="Union_1" class="st1" d="M136.1,205.5l24,2.3l27.6,29.8L150,281.9L136.1,205.5z M11.8,241.1L0,213.7
				c8.2-6.6,18.5-10.2,29-10.2h18.1l25.3,37.6L11.8,241.1z M151,167.5l-37.7-19.9h84.4l-5,19.9H151z M250.5,38.4l36.9,16.5l8.2,31.4
				c-10.1,0.1-19,2.6-26.1,7.5L250.5,38.4z M66.4,58.3l-2.4-9.8h49.2l4.2,16l-11.8,20.4L66.4,58.3z M191.4,23.8c1-1.1,2-2.2,2.9-3.4
				L208.3,0l4.6,1.5L226.5,34l-16.6,4L191.4,23.8z"/>
		</g>
		
			<linearGradient id="Path_1238_1_" gradientUnits="userSpaceOnUse" x1="-61.9584" y1="1091.9086" x2="-61.0084" y2="1091.9205" gradientTransform="matrix(612.9254 0 0 -474.363 38425.8633 518257.9688)">
			<stop  offset="0" style="stop-color:#FFFFFF"/>
			<stop  offset="1" style="stop-color:#E8ECEC"/>
		</linearGradient>
		<path id="Path_1238" class="st2" d="M1043.1,99.5L963.2,71l-0.3,1.8l26.1,9.3l-17.7,18.5L954.2,76l-2.2,0.5l17.9,25.8l-4,4.2
			l-56.8-28.3l-0.8,1.7l56.2,28.1l-6.6,6.9L773.5,55.6l-1.7,6l87.4,28.3l-5,22.3l-28.3-8.7l-3.7,20.8l-69.8-22.7l-0.7,2.6
			c-0.3-4.7-0.9-9.4-1.9-14.1l55.9,12.8l0.3-23.7l-2.5-0.5l-0.3,21.5l-53.9-12.3c-1.5-6.6-3.8-13-6.9-19l-6.5,1.7l0,0
			c6.5,13.7,9.3,29,8.1,44.1c-3.1,35.2-28,63.8-75.4,83.6c-62.1,25.9-124,53.9-168,100.4c-25.5,27-43.8,58.4-55.4,96.9
			c-11.3,37.3-16.3,81-14.6,134.4h11c-1.9-44.1,0.9-81.9,8.4-114.7h26.8L497.6,530h3.8l-21.1-114.7h61.1L529.5,530h3.6l11.5-114.7
			h29.1L573.6,530h7.3l-0.3-75.6l80.4-100.7l7.9,19.3c-25.2,20.1-41,55.5-39.2,97.9l2.5,59.1h12.1l-3.1-59.1
			c-0.7-13.2,0.6-26.4,4-39.1H693l40.4,98.3h3.9l-40.7-98.3h55.6l-2.9,1.1l39.2,97.1h3.8l-39.9-98.3h38.8l36.9,56.8l8.1,41.5h7.3
			l-7.1-35.8l122.8,6.8l8.5,29h12.1l-14.9-49.5l11.9,1.9l30.4,24.9l36.1,2.7v-4.4l-36-2.7l-23.9-19.5l59.9,9.5v-4.2l-18.2-2.9
			l-0.7-70.5l18.9,1.1v-3.8l-22.5-1.4l0.5,73.9l-20.5-3.2l-8.7-56.2L965.7,386l53.7-10.6l23.7,6.1v-3.4l-16.3-4.2l16.3-3.2v-3.9
			l-39.4,7.8L962.3,319c10.1-1.5,20.4-2.4,30.6-2.7l50.2,50v-3.8l-46.6-46.2c15.6-0.2,31.1,0.5,46.6,2.1v-6.4
			c-3.6-0.4-7.2-0.7-10.7-1c-5.7-0.5-11.2-0.8-16.7-1l-1.1-27.5h28.5v-10.2h-39.6l-11.6-45.8l51.2,22.9v-7.4l-19.5-44l19.5,6.4v-8
			l-29.1-9.5l-4.9-21l25.3,6.8l-12.6-30.1l21.3,6.9v-7.2l-13.3-4.3l-4.5-42.7l17.8,6.4L1043.1,99.5z M991.9,83.2l30.7,11l1.2,12.2
			L980.6,95L991.9,83.2z M957.3,143.3l21,6.8l6.8,27.2l-60.7-19.7l2.4-10.2l29.9,8.1L957.3,143.3z M878.2,180.2l-8.4,11.1
			c-9.6,12.7-25.3,19.8-44.2,19.8h-25.8l-0.8-41l39.2,7.6l-4.8-23.8L878.2,180.2z M832.8,151l-3.4-16.9l66.9,22l-16.8,22.3
			L832.8,151z M746.6,240.7l54.1,36.8l-16.6,32h-26.2L746.6,240.7z M754.8,309.5h-28.2l-4.4-32.5l27.7,1.7L754.8,309.5z
			 M803.4,279.3l28.3,19.3l2.5,10.9h-46.4L803.4,279.3z M830.8,294.6l-26.1-17.7l15.2-29.5L830.8,294.6z M815.6,216.5h11.4
			c4.3,0,8.5-0.4,12.7-1.1l13.7,19.2l-31.9,6.8L815.6,216.5z M829,274h64.7l10.4,35.5h-66.8L829,274z M828.3,271l-6.2-26.7l33.1-7.1
			l24.1,33.7H828.3z M842.3,214.9c9.9-2,19-6.6,26.5-13.3l29.4,23.4l-42.1,9L842.3,214.9z M812.8,216.5l6,26.1L801.9,275l-55.9-38
			l-3.3-20.6L812.8,216.5z M749.3,275.6l-52.3-3.1l-6.3-55.9h49.1L749.3,275.6z M694.1,272.3l-55.5-3.3l-6.2-24l59.3,5.7
			L694.1,272.3z M639.4,272l55.1,3.3l3.8,34.2H587.4l52.5-35.6L639.4,272z M697.4,275.5l21.8,1.3l4.3,32.7h-22.3L697.4,275.5z
			 M762,316l73.1,39h-92.5l-37.4-39H762z M768.4,316h135.5l-11.2,39h-51L768.4,316z M907.4,316H930c-5,11.4-7.5,24.6-7.5,39h-26.1
			L907.4,316z M923,366.8c1,10.4,3,20.7,5.9,30.7l19.7,67.4L857,366.8L923,366.8z M932.6,309.5h-25.5L896.6,274h51.5l4.5,13
			c-6.9,5.2-12.8,11.7-17.4,19c-0.8,1.3-1.6,2.7-2.4,4.1L932.6,309.5z M882.4,271l-24.6-34.3l43.2-9.2l42.7,34.1l3.2,9.4L882.4,271z
			 M904.1,226.8l25.9-5.5l12.3,35.9L904.1,226.8z M901.1,224.4L870.4,200c1.5-1.6,3-3.2,4.3-5l27.6-37l6.8,2.2l19.9,58.2
			L901.1,224.4z M912.1,161.3l66,21.7L988,222l-64.9-28.9L912.1,161.3z M937.8,115.2l17.6,5.7l-0.8,19.3l-17.3-5.6L937.8,115.2z
			 M935.1,114.4l-0.5,19.4l-19.1-6.2l-0.8-19.8L935.1,114.4z M861.8,90.7l20.5,6.6l-2.6,22.7l-22.8-7L861.8,90.7z M856.3,115
			l25.6,7.9l2.8-24.7l27.3,8.8l0.8,22l41.6,13.5l-0.4,10.1l-29.4-8l-3,12.1L888.8,146l0.4-1l-35.6-17.8L856.3,115z M828.1,106.3
			l25.7,7.9l-3.1,13.8l31.5,15.8l-57.4-18.7L828.1,106.3z M826.7,133.2l8.2,41.4l-66-12.7l13.7-43.1L826.7,133.2z M751.6,116
			c0.2-2.5,0.2-4.9,0.2-7.3l28.2,9.3l-13.9,43.4l-28.1-5.4C745.9,144,750.6,130.2,751.6,116L751.6,116z M734.3,161.3
			c0.8-1.1,1.5-2.2,2.3-3.3l59.7,11.6l0.4,21.5l-83.9-8.3C720.8,176.6,728.1,169.4,734.3,161.3L734.3,161.3z M672.4,205.7
			c13.2-5.4,25.7-12.3,37.3-20.6l86.9,8.6l0.3,17.5H659.6C663.9,209.3,668.2,207.5,672.4,205.7L672.4,205.7z M647.1,216.5H688
			l3.4,31.1l-59.8-5.7l-4.3-16.6C633.9,222.4,640.5,219.4,647.1,216.5z M622.2,227.8l10.3,40.8l-76-4.6
			C576.9,250.4,599.2,238.6,622.2,227.8z M450.9,411.4c9.2-37.9,24.7-69.1,46.5-95.4h33.4l-21,95.4H450.9z M573.7,411.4H513
			l20.8-95.4h40L573.7,411.4z M502.9,309.5c1.3-1.4,2.5-2.8,3.8-4.2c13.7-14.5,29-27.4,45.6-38.5l80,4.8L576,309.5L502.9,309.5z
			 M580.5,448.5L579.9,316h65.5l14,34L580.5,448.5z M648.7,316h52.4l37.3,39h-18.7c-17.4,0-34.3,5.6-48.2,16L648.7,316z
			 M646.3,427.7c5.5-17.7,15-32.5,27.3-43.1l17.7,43.1H646.3z M695,427.7l-18.7-45.2c12.7-10.2,28.6-15.7,44.9-15.7h28l39.6,61
			L695,427.7z M752.8,366.8h51.7l21.9,112.9L752.8,366.8z M834.6,485.8l-23.8-119H853l44,47.2L834.6,485.8z M836.9,489.9l62.9-72.8
			l50.9,54.7l7.3,24.8L836.9,489.9z M988.6,426.2l8.4,55.3l-33.5-5.3l-23.7-78.7c-0.6-2-1.2-4-1.7-6l24.5-4.8L988.6,426.2z
			 M937.3,387.6c-2.8-11.4-3.9-23.2-3.4-35l43.3,27.1L937.3,387.6z M1000.7,375.1l-19.3,3.8l-47.3-29.6c0.7-8.7,2.7-17.3,6-25.5
			c6.4-1.9,12.9-3.4,19.5-4.5l-0.2,0.1L1000.7,375.1z M1005.3,282.3h6.1l1,27.4c-26.1-0.9-49,1-68.3,5.7
			C956.1,294.7,977.6,282.3,1005.3,282.3L1005.3,282.3z M1000.6,272.1c-17.7,0.1-33.2,4.6-45.6,13.2l-30.8-89.2l64.6,28.8
			L1000.6,272.1z M1020.4,196.8l21.7,49.3l-51-22.7l-10-39.5L1020.4,196.8z M1011,185.7l-23-7.5l-7.5-29.6l-23.2-7.5l0.8-19.3
			l41.2,13.3L1011,185.7z M1030.3,169.1l-21.8-5.8l-6.4-27.2l16.7,5.4L1030.3,169.1z M1027,136.9L961,115.7l18.2-19.1l45,11.8
			L1027,136.9z"/>
	</g>
	<g id="Group_383" transform="translate(41 677)">
		<path id="Path_940" class="st3" d="M991.2,665.7c-21.8,0-39.5-9.3-39.5-20.7s17.7-20.7,39.5-20.7c21.8,0,39.5,9.3,39.5,20.7
			S1013,665.7,991.2,665.7 M1014.3,605c-42.1,0-76.3,17.9-76.3,40c0,22.1,34.1,40,76.3,40s76.3-17.9,76.3-40
			C1090.5,622.9,1056.4,605,1014.3,605"/>
		<path id="Path_954" class="st3" d="M1000.2,684.1h28.3l-14.1,14.1L1000.2,684.1z"/>
	</g>
</g>
</svg>
